ply
format ascii 1.0
element vertex 961
property double x
property double y
property double z
element face 1800
property list uchar int vertex_indices
property uchar is_in_injection
element radii 13
property double value
end_header
1.7945081825416246e6 -5.857728300718426e6 -1.7623875248518942e6
1.7976872390441187e6 -5.856725948053411e6 -1.7623875248518942e6
1.800866295546613e6 -5.855723595388398e6 -1.7623875248518942e6
1.804045352049107e6 -5.854721242723383e6 -1.7623875248518942e6
1.807224408551601e6 -5.853718890058368e6 -1.7623875248518942e6
1.810403465054095e6 -5.852716537393355e6 -1.7623875248518942e6
1.8135825215565893e6 -5.85171418472834e6 -1.7623875248518942e6
1.8167615780590833e6 -5.850711832063326e6 -1.7623875248518942e6
1.8199406345615773e6 -5.849709479398312e6 -1.7623875248518942e6
1.8231196910640714e6 -5.8487071267332975e6 -1.7623875248518942e6
1.8262987475665656e6 -5.847704774068283e6 -1.7623875248518942e6
1.8294778040690597e6 -5.846702421403269e6 -1.7623875248518942e6
1.8326568605715537e6 -5.845700068738255e6 -1.7623875248518942e6
1.8358359170740477e6 -5.84469771607324e6 -1.7623875248518942e6
1.839014973576542e6 -5.8436953634082265e6 -1.7623875248518942e6
1.842194030079036e6 -5.842693010743212e6 -1.7623875248518942e6
1.84537308658153e6 -5.841690658078197e6 -1.7623875248518942e6
1.8485521430840243e6 -5.840688305413184e6 -1.7623875248518942e6
1.8517311995865183e6 -5.839685952748169e6 -1.7623875248518942e6
1.8549102560890124e6 -5.838683600083155e6 -1.7623875248518942e6
1.8580893125915064e6 -5.837681247418141e6 -1.7623875248518942e6
1.8612683690940007e6 -5.836678894753126e6 -1.7623875248518942e6
1.8644474255964947e6 -5.835676542088112e6 -1.7623875248518942e6
1.8676264820989887e6 -5.834674189423098e6 -1.7623875248518942e6
1.8708055386014828e6 -5.833671836758084e6 -1.7623875248518942e6
1.873984595103977e6 -5.832669484093069e6 -1.7623875248518942e6
1.877163651606471e6 -5.831667131428055e6 -1.7623875248518942e6
1.880342708108965e6 -5.830664778763041e6 -1.7623875248518942e6
1.883521764611459e6 -5.829662426098026e6 -1.7623875248518942e6
1.8867008211139534e6 -5.828660073433013e6 -1.7623875248518942e6
1.8898798776164474e6 -5.827657720767998e6 -1.7623875248518942e6
1.7947777350404935e6 -5.858583212022803e6 -1.7591769829625688e6
1.7979567915429876e6 -5.857580859357788e6 -1.7591769829625688e6
1.8011358480454818e6 -5.856578506692775e6 -1.7591769829625688e6
1.8043149045479759e6 -5.85557615402776e6 -1.7591769829625688e6
1.80749396105047e6 -5.854573801362745e6 -1.7591769829625688e6
1.810673017552964e6 -5.853571448697732e6 -1.7591769829625688e6
1.8138520740554582e6 -5.852569096032717e6 -1.7591769829625688e6
1.8170311305579522e6 -5.851566743367703e6 -1.7591769829625688e6
1.8202101870604462e6 -5.850564390702689e6 -1.7591769829625688e6
1.8233892435629403e6 -5.8495620380376745e6 -1.7591769829625688e6
1.8265683000654345e6 -5.84855968537266e6 -1.7591769829625688e6
1.8297473565679286e6 -5.847557332707646e6 -1.7591769829625688e6
1.8329264130704226e6 -5.846554980042632e6 -1.7591769829625688e6
1.8361054695729166e6 -5.845552627377617e6 -1.7591769829625688e6
1.839284526075411e6 -5.844550274712604e6 -1.7591769829625688e6
1.842463582577905e6 -5.843547922047589e6 -1.7591769829625688e6
1.845642639080399e6 -5.842545569382574e6 -1.7591769829625688e6
1.8488216955828932e6 -5.841543216717561e6 -1.7591769829625688e6
1.8520007520853872e6 -5.840540864052546e6 -1.7591769829625688e6
1.8551798085878813e6 -5.839538511387532e6 -1.7591769829625688e6
1.8583588650903753e6 -5.838536158722518e6 -1.7591769829625688e6
1.8615379215928696e6 -5.837533806057503e6 -1.7591769829625688e6
1.8647169780953636e6 -5.836531453392489e6 -1.7591769829625688e6
1.8678960345978576e6 -5.835529100727475e6 -1.7591769829625688e6
1.8710750911003517e6 -5.834526748062461e6 -1.7591769829625688e6
1.874254147602846e6 -5.833524395397446e6 -1.7591769829625688e6
1.87743320410534e6 -5.8325220427324325e6 -1.7591769829625688e6
1.880612260607834e6 -5.831519690067418e6 -1.7591769829625688e6
1.883791317110328e6 -5.830517337402403e6 -1.7591769829625688e6
1.8869703736128223e6 -5.82951498473739e6 -1.7591769829625688e6
1.8901494301153163e6 -5.828512632072375e6 -1.7591769829625688e6
1.7950472875393624e6 -5.859438123327179e6 -1.755966441073243e6
1.7982263440418565e6 -5.858435770662164e6 -1.755966441073243e6
1.8014054005443507e6 -5.857433417997151e6 -1.755966441073243e6
1.8045844570468448e6 -5.856431065332136e6 -1.755966441073243e6
1.8077635135493388e6 -5.855428712667122e6 -1.755966441073243e6
1.8109425700518328e6 -5.854426360002108e6 -1.755966441073243e6
1.814121626554327e6 -5.853424007337093e6 -1.755966441073243e6
1.817300683056821e6 -5.852421654672079e6 -1.755966441073243e6
1.8204797395593151e6 -5.851419302007065e6 -1.755966441073243e6
1.8236587960618092e6 -5.850416949342051e6 -1.755966441073243e6
1.8268378525643034e6 -5.849414596677036e6 -1.755966441073243e6
1.8300169090667975e6 -5.848412244012022e6 -1.755966441073243e6
1.8331959655692915e6 -5.847409891347008e6 -1.755966441073243e6
1.8363750220717855e6 -5.846407538681993e6 -1.755966441073243e6
1.8395540785742798e6 -5.84540518601698e6 -1.755966441073243e6
1.8427331350767738e6 -5.844402833351965e6 -1.755966441073243e6
1.8459121915792678e6 -5.8434004806869505e6 -1.755966441073243e6
1.849091248081762e6 -5.842398128021937e6 -1.755966441073243e6
1.8522703045842561e6 -5.841395775356922e6 -1.755966441073243e6
1.8554493610867502e6 -5.840393422691908e6 -1.755966441073243e6
1.8586284175892442e6 -5.839391070026894e6 -1.755966441073243e6
1.8618074740917385e6 -5.83838871736188e6 -1.755966441073243e6
1.8649865305942325e6 -5.837386364696865e6 -1.755966441073243e6
1.8681655870967265e6 -5.836384012031851e6 -1.755966441073243e6
1.8713446435992206e6 -5.835381659366837e6 -1.755966441073243e6
1.8745237001017148e6 -5.834379306701822e6 -1.755966441073243e6
1.8777027566042088e6 -5.833376954036809e6 -1.755966441073243e6
1.8808818131067029e6 -5.832374601371794e6 -1.755966441073243e6
1.884060869609197e6 -5.831372248706779e6 -1.755966441073243e6
1.8872399261116912e6 -5.830369896041766e6 -1.755966441073243e6
1.8904189826141852e6 -5.829367543376751e6 -1.755966441073243e6
1.7953168400382313e6 -5.860293034631556e6 -1.7527558991839176e6
1.7984958965407254e6 -5.859290681966541e6 -1.7527558991839176e6
1.8016749530432196e6 -5.858288329301528e6 -1.7527558991839176e6
1.8048540095457137e6 -5.857285976636513e6 -1.7527558991839176e6
1.8080330660482077e6 -5.856283623971499e6 -1.7527558991839176e6
1.8112121225507017e6 -5.855281271306485e6 -1.7527558991839176e6
1.814391179053196e6 -5.85427891864147e6 -1.7527558991839176e6
1.81757023555569e6 -5.853276565976456e6 -1.7527558991839176e6
1.820749292058184e6 -5.852274213311442e6 -1.7527558991839176e6
1.823928348560678e6 -5.851271860646428e6 -1.7527558991839176e6
1.8271074050631723e6 -5.850269507981413e6 -1.7527558991839176e6
1.8302864615656664e6 -5.849267155316399e6 -1.7527558991839176e6
1.8334655180681604e6 -5.848264802651385e6 -1.7527558991839176e6
1.8366445745706544e6 -5.84726244998637e6 -1.7527558991839176e6
1.8398236310731487e6 -5.846260097321357e6 -1.7527558991839176e6
1.8430026875756427e6 -5.845257744656342e6 -1.7527558991839176e6
1.8461817440781367e6 -5.8442553919913275e6 -1.7527558991839176e6
1.849360800580631e6 -5.843253039326314e6 -1.7527558991839176e6
1.852539857083125e6 -5.842250686661299e6 -1.7527558991839176e6
1.855718913585619e6 -5.841248333996285e6 -1.7527558991839176e6
1.858897970088113e6 -5.840245981331271e6 -1.7527558991839176e6
1.8620770265906074e6 -5.839243628666257e6 -1.7527558991839176e6
1.8652560830931014e6 -5.838241276001242e6 -1.7527558991839176e6
1.8684351395955954e6 -5.837238923336228e6 -1.7527558991839176e6
1.8716141960980895e6 -5.836236570671214e6 -1.7527558991839176e6
1.8747932526005837e6 -5.835234218006199e6 -1.7527558991839176e6
1.8779723091030777e6 -5.834231865341186e6 -1.7527558991839176e6
1.8811513656055718e6 -5.833229512676171e6 -1.7527558991839176e6
1.8843304221080658e6 -5.832227160011156e6 -1.7527558991839176e6
1.88750947861056e6 -5.831224807346143e6 -1.7527558991839176e6
1.890688535113054e6 -5.830222454681128e6 -1.7527558991839176e6
1.7955863925371002e6 -5.861147945935932e6 -1.749545357294592e6
1.7987654490395943e6 -5.860145593270917e6 -1.749545357294592e6
1.8019445055420885e6 -5.859143240605904e6 -1.749545357294592e6
1.8051235620445826e6 -5.858140887940889e6 -1.749545357294592e6
1.8083026185470766e6 -5.857138535275875e6 -1.749545357294592e6
1.8114816750495706e6 -5.856136182610861e6 -1.749545357294592e6
1.814660731552065e6 -5.855133829945846e6 -1.749545357294592e6
1.817839788054559e6 -5.854131477280832e6 -1.749545357294592e6
1.821018844557053e6 -5.853129124615818e6 -1.749545357294592e6
1.824197901059547e6 -5.852126771950804e6 -1.749545357294592e6
1.8273769575620412e6 -5.851124419285789e6 -1.749545357294592e6
1.8305560140645353e6 -5.8501220666207755e6 -1.749545357294592e6
1.8337350705670293e6 -5.849119713955761e6 -1.749545357294592e6
1.8369141270695233e6 -5.848117361290746e6 -1.749545357294592e6
1.8400931835720176e6 -5.847115008625733e6 -1.749545357294592e6
1.8432722400745116e6 -5.846112655960718e6 -1.749545357294592e6
1.8464512965770056e6 -5.845110303295704e6 -1.749545357294592e6
1.8496303530795e6 -5.84410795063069e6 -1.749545357294592e6
1.852809409581994e6 -5.843105597965675e6 -1.749545357294592e6
1.855988466084488e6 -5.842103245300661e6 -1.749545357294592e6
1.859167522586982e6 -5.841100892635647e6 -1.749545357294592e6
1.8623465790894763e6 -5.840098539970633e6 -1.749545357294592e6
1.8655256355919703e6 -5.839096187305618e6 -1.749545357294592e6
1.8687046920944643e6 -5.838093834640604e6 -1.749545357294592e6
1.8718837485969584e6 -5.83709148197559e6 -1.749545357294592e6
1.8750628050994526e6 -5.836089129310575e6 -1.749545357294592e6
1.8782418616019466e6 -5.835086776645562e6 -1.749545357294592e6
1.8814209181044407e6 -5.834084423980547e6 -1.749545357294592e6
1.8845999746069347e6 -5.833082071315533e6 -1.749545357294592e6
1.887779031109429e6 -5.832079718650519e6 -1.749545357294592e6
1.890958087611923e6 -5.831077365985504e6 -1.749545357294592e6
1.7958559450359691e6 -5.862002857240309e6 -1.7463348154052666e6
1.7990350015384632e6 -5.861000504575294e6 -1.7463348154052666e6
1.8022140580409574e6 -5.859998151910281e6 -1.7463348154052666e6
1.8053931145434515e6 -5.858995799245266e6 -1.7463348154052666e6
1.8085721710459455e6 -5.857993446580252e6 -1.7463348154052666e6
1.8117512275484395e6 -5.856991093915238e6 -1.7463348154052666e6
1.8149302840509338e6 -5.8559887412502235e6 -1.7463348154052666e6
1.8181093405534278e6 -5.854986388585209e6 -1.7463348154052666e6
1.8212883970559218e6 -5.853984035920195e6 -1.7463348154052666e6
1.8244674535584159e6 -5.852981683255181e6 -1.7463348154052666e6
1.8276465100609101e6 -5.851979330590166e6 -1.7463348154052666e6
1.8308255665634042e6 -5.8509769779251525e6 -1.7463348154052666e6
1.8340046230658982e6 -5.849974625260138e6 -1.7463348154052666e6
1.8371836795683922e6 -5.848972272595123e6 -1.7463348154052666e6
1.8403627360708865e6 -5.84796991993011e6 -1.7463348154052666e6
1.8435417925733805e6 -5.846967567265095e6 -1.7463348154052666e6
1.8467208490758745e6 -5.845965214600081e6 -1.7463348154052666e6
1.8498999055783688e6 -5.844962861935067e6 -1.7463348154052666e6
1.8530789620808628e6 -5.843960509270052e6 -1.7463348154052666e6
1.8562580185833569e6 -5.842958156605038e6 -1.7463348154052666e6
1.859437075085851e6 -5.841955803940024e6 -1.7463348154052666e6
1.8626161315883452e6 -5.84095345127501e6 -1.7463348154052666e6
1.8657951880908392e6 -5.839951098609995e6 -1.7463348154052666e6
1.8689742445933332e6 -5.838948745944981e6 -1.7463348154052666e6
1.8721533010958272e6 -5.837946393279967e6 -1.7463348154052666e6
1.8753323575983215e6 -5.836944040614952e6 -1.7463348154052666e6
1.8785114141008155e6 -5.835941687949939e6 -1.7463348154052666e6
1.8816904706033096e6 -5.834939335284924e6 -1.7463348154052666e6
1.8848695271058036e6 -5.83393698261991e6 -1.7463348154052666e6
1.8880485836082979e6 -5.832934629954896e6 -1.7463348154052666e6
1.891227640110792e6 -5.831932277289881e6 -1.7463348154052666e6
1.7961254975348378e6 -5.862857768544685e6 -1.743124273515941e6
1.7993045540373318e6 -5.8618554158796705e6 -1.743124273515941e6
1.802483610539826e6 -5.860853063214657e6 -1.743124273515941e6
1.8056626670423201e6 -5.859850710549642e6 -1.743124273515941e6
1.8088417235448142e6 -5.858848357884628e6 -1.743124273515941e6
1.8120207800473082e6 -5.857846005219614e6 -1.743124273515941e6
1.8151998365498025e6 -5.8568436525546e6 -1.743124273515941e6
1.8183788930522965e6 -5.855841299889585e6 -1.743124273515941e6
1.8215579495547905e6 -5.854838947224571e6 -1.743124273515941e6
1.8247370060572845e6 -5.853836594559557e6 -1.743124273515941e6
1.8279160625597788e6 -5.852834241894542e6 -1.743124273515941e6
1.8310951190622728e6 -5.851831889229529e6 -1.743124273515941e6
1.8342741755647669e6 -5.850829536564514e6 -1.743124273515941e6
1.837453232067261e6 -5.8498271838994995e6 -1.743124273515941e6
1.8406322885697552e6 -5.848824831234486e6 -1.743124273515941e6
1.8438113450722492e6 -5.847822478569471e6 -1.743124273515941e6
1.8469904015747432e6 -5.846820125904457e6 -1.743124273515941e6
1.8501694580772375e6 -5.845817773239443e6 -1.743124273515941e6
1.8533485145797315e6 -5.8448154205744285e6 -1.743124273515941e6
1.8565275710822255e6 -5.843813067909414e6 -1.743124273515941e6
1.8597066275847196e6 -5.8428107152444e6 -1.743124273515941e6
1.8628856840872138e6 -5.841808362579386e6 -1.743124273515941e6
1.8660647405897079e6 -5.840806009914371e6 -1.743124273515941e6
1.869243797092202e6 -5.839803657249358e6 -1.743124273515941e6
1.872422853594696e6 -5.838801304584343e6 -1.743124273515941e6
1.8756019100971902e6 -5.837798951919328e6 -1.743124273515941e6
1.8787809665996842e6 -5.836796599254315e6 -1.743124273515941e6
1.8819600231021782e6 -5.8357942465893e6 -1.743124273515941e6
1.8851390796046723e6 -5.834791893924286e6 -1.743124273515941e6
1.8883181361071665e6 -5.833789541259272e6 -1.743124273515941e6
1.8914971926096606e6 -5.832787188594257e6 -1.743124273515941e6
1.7963950500337067e6 -5.863712679849061e6 -1.7399137316266156e6
1.7995741065362007e6 -5.862710327184047e6 -1.7399137316266156e6
1.802753163038695e6 -5.861707974519033e6 -1.7399137316266156e6
1.805932219541189e6 -5.860705621854018e6 -1.7399137316266156e6
1.809111276043683e6 -5.859703269189004e6 -1.7399137316266156e6
1.812290332546177e6 -5.85870091652399e6 -1.7399137316266156e6
1.8154693890486713e6 -5.857698563858976e6 -1.7399137316266156e6
1.8186484455511654e6 -5.856696211193961e6 -1.7399137316266156e6
1.8218275020536594e6 -5.855693858528947e6 -1.7399137316266156e6
1.8250065585561534e6 -5.854691505863933e6 -1.7399137316266156e6
1.8281856150586477e6 -5.853689153198918e6 -1.7399137316266156e6
1.8313646715611417e6 -5.852686800533905e6 -1.7399137316266156e6
1.8345437280636358e6 -5.85168444786889e6 -1.7399137316266156e6
1.8377227845661298e6 -5.850682095203876e6 -1.7399137316266156e6
1.840901841068624e6 -5.849679742538862e6 -1.7399137316266156e6
1.844080897571118e6 -5.848677389873847e6 -1.7399137316266156e6
1.847259954073612e6 -5.847675037208833e6 -1.7399137316266156e6
1.8504390105761064e6 -5.846672684543819e6 -1.7399137316266156e6
1.8536180670786004e6 -5.845670331878805e6 -1.7399137316266156e6
1.8567971235810944e6 -5.84466797921379e6 -1.7399137316266156e6
1.8599761800835885e6 -5.843665626548776e6 -1.7399137316266156e6
1.8631552365860827e6 -5.842663273883762e6 -1.7399137316266156e6
1.8663342930885768e6 -5.841660921218747e6 -1.7399137316266156e6
1.8695133495910708e6 -5.840658568553734e6 -1.7399137316266156e6
1.8726924060935648e6 -5.839656215888719e6 -1.7399137316266156e6
1.875871462596059e6 -5.8386538632237045e6 -1.7399137316266156e6
1.879050519098553e6 -5.837651510558691e6 -1.7399137316266156e6
1.8822295756010471e6 -5.836649157893676e6 -1.7399137316266156e6
1.8854086321035412e6 -5.835646805228662e6 -1.7399137316266156e6
1.8885876886060354e6 -5.834644452563648e6 -1.7399137316266156e6
1.8917667451085295e6 -5.833642099898634e6 -1.7399137316266156e6
1.7966646025325756e6 -5.864567591153438e6 -1.73670318973729e6
1.7998436590350696e6 -5.863565238488424e6 -1.73670318973729e6
1.803022715537564e6 -5.86256288582341e6 -1.73670318973729e6
1.806201772040058e6 -5.861560533158395e6 -1.73670318973729e6
1.809380828542552e6 -5.860558180493381e6 -1.73670318973729e6
1.812559885045046e6 -5.859555827828367e6 -1.73670318973729e6
1.8157389415475402e6 -5.858553475163353e6 -1.73670318973729e6
1.8189179980500343e6 -5.857551122498338e6 -1.73670318973729e6
1.8220970545525283e6 -5.8565487698333245e6 -1.73670318973729e6
1.8252761110550223e6 -5.85554641716831e6 -1.73670318973729e6
1.8284551675575166e6 -5.854544064503295e6 -1.73670318973729e6
1.8316342240600106e6 -5.853541711838282e6 -1.73670318973729e6
1.8348132805625047e6 -5.852539359173267e6 -1.73670318973729e6
1.8379923370649987e6 -5.851537006508253e6 -1.73670318973729e6
1.841171393567493e6 -5.850534653843239e6 -1.73670318973729e6
1.844350450069987e6 -5.849532301178224e6 -1.73670318973729e6
1.847529506572481e6 -5.84852994851321e6 -1.73670318973729e6
1.8507085630749753e6 -5.847527595848196e6 -1.73670318973729e6
1.8538876195774693e6 -5.846525243183182e6 -1.73670318973729e6
1.8570666760799633e6 -5.845522890518167e6 -1.73670318973729e6
1.8602457325824574e6 -5.844520537853153e6 -1.73670318973729e6
1.8634247890849516e6 -5.843518185188139e6 -1.73670318973729e6
1.8666038455874457e6 -5.842515832523124e6 -1.73670318973729e6
1.8697829020899397e6 -5.841513479858111e6 -1.73670318973729e6
1.8729619585924337e6 -5.840511127193096e6 -1.73670318973729e6
1.876141015094928e6 -5.8395087745280815e6 -1.73670318973729e6
1.879320071597422e6 -5.838506421863068e6 -1.73670318973729e6
1.882499128099916e6 -5.837504069198053e6 -1.73670318973729e6
1.88567818460241e6 -5.836501716533039e6 -1.73670318973729e6
1.8888572411049043e6 -5.835499363868025e6 -1.73670318973729e6
1.8920362976073984e6 -5.834497011203011e6 -1.73670318973729e6
1.7969341550314445e6 -5.865422502457814e6 -1.7334926478479644e6
1.8001132115339385e6 -5.8644201497928e6 -1.7334926478479644e6
1.8032922680364328e6 -5.863417797127786e6 -1.7334926478479644e6
1.8064713245389268e6 -5.8624154444627715e6 -1.7334926478479644e6
1.8096503810414209e6 -5.861413091797757e6 -1.7334926478479644e6
1.812829437543915e6 -5.860410739132743e6 -1.7334926478479644e6
1.8160084940464091e6 -5.859408386467729e6 -1.7334926478479644e6
1.8191875505489032e6 -5.858406033802714e6 -1.7334926478479644e6
1.8223666070513972e6 -5.857403681137701e6 -1.7334926478479644e6
1.8255456635538912e6 -5.856401328472686e6 -1.7334926478479644e6
1.8287247200563855e6 -5.855398975807671e6 -1.7334926478479644e6
1.8319037765588795e6 -5.854396623142658e6 -1.7334926478479644e6
1.8350828330613736e6 -5.853394270477643e6 -1.7334926478479644e6
1.8382618895638676e6 -5.852391917812629e6 -1.7334926478479644e6
1.8414409460663619e6 -5.851389565147615e6 -1.7334926478479644e6
1.8446200025688559e6 -5.8503872124826005e6 -1.7334926478479644e6
1.84779905907135e6 -5.849384859817586e6 -1.7334926478479644e6
1.8509781155738442e6 -5.848382507152572e6 -1.7334926478479644e6
1.8541571720763382e6 -5.847380154487558e6 -1.7334926478479644e6
1.8573362285788322e6 -5.846377801822543e6 -1.7334926478479644e6
1.8605152850813263e6 -5.8453754491575295e6 -1.7334926478479644e6
1.8636943415838205e6 -5.844373096492515e6 -1.7334926478479644e6
1.8668733980863146e6 -5.8433707438275e6 -1.7334926478479644e6
1.8700524545888086e6 -5.842368391162487e6 -1.7334926478479644e6
1.8732315110913026e6 -5.841366038497472e6 -1.7334926478479644e6
1.8764105675937969e6 -5.840363685832458e6 -1.7334926478479644e6
1.879589624096291e6 -5.839361333167444e6 -1.7334926478479644e6
1.882768680598785e6 -5.838358980502429e6 -1.7334926478479644e6
1.885947737101279e6 -5.837356627837415e6 -1.7334926478479644e6
1.8891267936037732e6 -5.836354275172401e6 -1.7334926478479644e6
1.8923058501062673e6 -5.835351922507387e6 -1.7334926478479644e6
1.7972037075303134e6 -5.866277413762191e6 -1.730282105958639e6
1.8003827640328074e6 -5.865275061097177e6 -1.730282105958639e6
1.8035618205353017e6 -5.864272708432163e6 -1.730282105958639e6
1.8067408770377957e6 -5.863270355767149e6 -1.730282105958639e6
1.8099199335402898e6 -5.862268003102134e6 -1.730282105958639e6
1.8130989900427838e6 -5.86126565043712e6 -1.730282105958639e6
1.816278046545278e6 -5.860263297772106e6 -1.730282105958639e6
1.819457103047772e6 -5.859260945107091e6 -1.730282105958639e6
1.822636159550266e6 -5.858258592442078e6 -1.730282105958639e6
1.8258152160527601e6 -5.857256239777063e6 -1.730282105958639e6
1.8289942725552544e6 -5.856253887112048e6 -1.730282105958639e6
1.8321733290577484e6 -5.855251534447035e6 -1.730282105958639e6
1.8353523855602425e6 -5.85424918178202e6 -1.730282105958639e6
1.8385314420627365e6 -5.853246829117006e6 -1.730282105958639e6
1.8417104985652308e6 -5.852244476451992e6 -1.730282105958639e6
1.8448895550677248e6 -5.8512421237869775e6 -1.730282105958639e6
1.8480686115702188e6 -5.850239771121963e6 -1.730282105958639e6
1.851247668072713e6 -5.849237418456949e6 -1.730282105958639e6
1.854426724575207e6 -5.848235065791935e6 -1.730282105958639e6
1.8576057810777011e6 -5.84723271312692e6 -1.730282105958639e6
1.8607848375801952e6 -5.8462303604619065e6 -1.730282105958639e6
1.8639638940826894e6 -5.845228007796892e6 -1.730282105958639e6
1.8671429505851835e6 -5.844225655131877e6 -1.730282105958639e6
1.8703220070876775e6 -5.843223302466864e6 -1.730282105958639e6
1.8735010635901715e6 -5.842220949801849e6 -1.730282105958639e6
1.8766801200926658e6 -5.841218597136835e6 -1.730282105958639e6
1.8798591765951598e6 -5.840216244471821e6 -1.730282105958639e6
1.8830382330976538e6 -5.839213891806806e6 -1.730282105958639e6
1.8862172896001479e6 -5.838211539141792e6 -1.730282105958639e6
1.8893963461026421e6 -5.837209186476778e6 -1.730282105958639e6
1.8925754026051362e6 -5.836206833811764e6 -1.730282105958639e6
1.7974732600291823e6 -5.867132325066567e6 -1.7270715640693135e6
1.8006523165316763e6 -5.866129972401553e6 -1.7270715640693135e6
1.8038313730341706e6 -5.865127619736539e6 -1.7270715640693135e6
1.8070104295366646e6 -5.864125267071525e6 -1.7270715640693135e6
1.8101894860391587e6 -5.86312291440651e6 -1.7270715640693135e6
1.8133685425416527e6 -5.862120561741496e6 -1.7270715640693135e6
1.816547599044147e6 -5.861118209076482e6 -1.7270715640693135e6
1.819726655546641e6 -5.860115856411467e6 -1.7270715640693135e6
1.822905712049135e6 -5.859113503746454e6 -1.7270715640693135e6
1.826084768551629e6 -5.858111151081439e6 -1.7270715640693135e6
1.8292638250541233e6 -5.857108798416425e6 -1.7270715640693135e6
1.8324428815566173e6 -5.856106445751411e6 -1.7270715640693135e6
1.8356219380591114e6 -5.855104093086396e6 -1.7270715640693135e6
1.8388009945616054e6 -5.854101740421382e6 -1.7270715640693135e6
1.8419800510640997e6 -5.853099387756368e6 -1.7270715640693135e6
1.8451591075665937e6 -5.852097035091354e6 -1.7270715640693135e6
1.8483381640690877e6 -5.851094682426339e6 -1.7270715640693135e6
1.851517220571582e6 -5.850092329761325e6 -1.7270715640693135e6
1.854696277074076e6 -5.849089977096311e6 -1.7270715640693135e6
1.85787533357657e6 -5.848087624431296e6 -1.7270715640693135e6
1.861054390079064e6 -5.847085271766283e6 -1.7270715640693135e6
1.8642334465815583e6 -5.846082919101268e6 -1.7270715640693135e6
1.8674125030840524e6 -5.8450805664362535e6 -1.7270715640693135e6
1.8705915595865464e6 -5.84407821377124e6 -1.7270715640693135e6
1.8737706160890404e6 -5.843075861106225e6 -1.7270715640693135e6
1.8769496725915347e6 -5.842073508441211e6 -1.7270715640693135e6
1.8801287290940287e6 -5.841071155776197e6 -1.7270715640693135e6
1.8833077855965227e6 -5.8400688031111825e6 -1.7270715640693135e6
1.8864868420990168e6 -5.839066450446168e6 -1.7270715640693135e6
1.889665898601511e6 -5.838064097781154e6 -1.7270715640693135e6
1.892844955104005e6 -5.83706174511614e6 -1.7270715640693135e6
1.797742812528051e6 -5.867987236370944e6 -1.723861022179988e6
1.800921869030545e6 -5.86698488370593e6 -1.723861022179988e6
1.8041009255330393e6 -5.865982531040916e6 -1.723861022179988e6
1.8072799820355333e6 -5.864980178375902e6 -1.723861022179988e6
1.8104590385380273e6 -5.863977825710887e6 -1.723861022179988e6
1.8136380950405214e6 -5.862975473045873e6 -1.723861022179988e6
1.8168171515430156e6 -5.861973120380859e6 -1.723861022179988e6
1.8199962080455096e6 -5.860970767715844e6 -1.723861022179988e6
1.8231752645480037e6 -5.859968415050831e6 -1.723861022179988e6
1.8263543210504977e6 -5.858966062385816e6 -1.723861022179988e6
1.829533377552992e6 -5.857963709720802e6 -1.723861022179988e6
1.832712434055486e6 -5.856961357055788e6 -1.723861022179988e6
1.83589149055798e6 -5.855959004390773e6 -1.723861022179988e6
1.839070547060474e6 -5.854956651725759e6 -1.723861022179988e6
1.8422496035629683e6 -5.853954299060745e6 -1.723861022179988e6
1.8454286600654623e6 -5.852951946395731e6 -1.723861022179988e6
1.8486077165679564e6 -5.851949593730716e6 -1.723861022179988e6
1.8517867730704506e6 -5.850947241065702e6 -1.723861022179988e6
1.8549658295729447e6 -5.849944888400688e6 -1.723861022179988e6
1.8581448860754387e6 -5.848942535735673e6 -1.723861022179988e6
1.8613239425779327e6 -5.84794018307066e6 -1.723861022179988e6
1.864502999080427e6 -5.846937830405645e6 -1.723861022179988e6
1.867682055582921e6 -5.8459354777406305e6 -1.723861022179988e6
1.870861112085415e6 -5.844933125075617e6 -1.723861022179988e6
1.874040168587909e6 -5.843930772410602e6 -1.723861022179988e6
1.8772192250904033e6 -5.842928419745588e6 -1.723861022179988e6
1.8803982815928974e6 -5.841926067080574e6 -1.723861022179988e6
1.8835773380953914e6 -5.84092371441556e6 -1.723861022179988e6
1.8867563945978854e6 -5.839921361750545e6 -1.723861022179988e6
1.8899354511003797e6 -5.838919009085531e6 -1.723861022179988e6
1.8931145076028737e6 -5.837916656420517e6 -1.723861022179988e6
1.7980123650269199e6 -5.8688421476753205e6 -1.7206504802906623e6
1.801191421529414e6 -5.867839795010306e6 -1.7206504802906623e6
1.8043704780319082e6 -5.866837442345292e6 -1.7206504802906623e6
1.8075495345344022e6 -5.865835089680278e6 -1.7206504802906623e6
1.8107285910368962e6 -5.864832737015263e6 -1.7206504802906623e6
1.8139076475393903e6 -5.86383038435025e6 -1.7206504802906623e6
1.8170867040418845e6 -5.862828031685235e6 -1.7206504802906623e6
1.8202657605443785e6 -5.86182567902022e6 -1.7206504802906623e6
1.8234448170468726e6 -5.860823326355207e6 -1.7206504802906623e6
1.8266238735493666e6 -5.859820973690192e6 -1.7206504802906623e6
1.8298029300518609e6 -5.858818621025178e6 -1.7206504802906623e6
1.832981986554355e6 -5.857816268360164e6 -1.7206504802906623e6
1.836161043056849e6 -5.856813915695149e6 -1.7206504802906623e6
1.839340099559343e6 -5.855811563030135e6 -1.7206504802906623e6
1.8425191560618372e6 -5.854809210365121e6 -1.7206504802906623e6
1.8456982125643312e6 -5.853806857700107e6 -1.7206504802906623e6
1.8488772690668253e6 -5.852804505035092e6 -1.7206504802906623e6
1.8520563255693195e6 -5.8518021523700785e6 -1.7206504802906623e6
1.8552353820718136e6 -5.850799799705064e6 -1.7206504802906623e6
1.8584144385743076e6 -5.849797447040049e6 -1.7206504802906623e6
1.8615934950768016e6 -5.848795094375036e6 -1.7206504802906623e6
1.864772551579296e6 -5.847792741710021e6 -1.7206504802906623e6
1.86795160808179e6 -5.846790389045007e6 -1.7206504802906623e6
1.871130664584284e6 -5.845788036379993e6 -1.7206504802906623e6
1.874309721086778e6 -5.844785683714978e6 -1.7206504802906623e6
1.8774887775892722e6 -5.843783331049964e6 -1.7206504802906623e6
1.8806678340917663e6 -5.84278097838495e6 -1.7206504802906623e6
1.8838468905942603e6 -5.841778625719936e6 -1.7206504802906623e6
1.8870259470967543e6 -5.840776273054921e6 -1.7206504802906623e6
1.8902050035992486e6 -5.839773920389907e6 -1.7206504802906623e6
1.8933840601017426e6 -5.838771567724893e6 -1.7206504802906623e6
1.7982819175257888e6 -5.8696970589796975e6 -1.7174399384013368e6
1.8014609740282828e6 -5.868694706314683e6 -1.7174399384013368e6
1.804640030530777e6 -5.867692353649669e6 -1.7174399384013368e6
1.807819087033271e6 -5.866690000984655e6 -1.7174399384013368e6
1.8109981435357651e6 -5.86568764831964e6 -1.7174399384013368e6
1.8141772000382592e6 -5.864685295654627e6 -1.7174399384013368e6
1.8173562565407534e6 -5.863682942989612e6 -1.7174399384013368e6
1.8205353130432474e6 -5.862680590324597e6 -1.7174399384013368e6
1.8237143695457415e6 -5.861678237659584e6 -1.7174399384013368e6
1.8268934260482355e6 -5.860675884994569e6 -1.7174399384013368e6
1.8300724825507298e6 -5.859673532329555e6 -1.7174399384013368e6
1.8332515390532238e6 -5.858671179664541e6 -1.7174399384013368e6
1.8364305955557178e6 -5.8576688269995265e6 -1.7174399384013368e6
1.8396096520582119e6 -5.856666474334512e6 -1.7174399384013368e6
1.842788708560706e6 -5.855664121669498e6 -1.7174399384013368e6
1.8459677650632001e6 -5.854661769004484e6 -1.7174399384013368e6
1.8491468215656942e6 -5.853659416339469e6 -1.7174399384013368e6
1.8523258780681884e6 -5.8526570636744555e6 -1.7174399384013368e6
1.8555049345706825e6 -5.851654711009441e6 -1.7174399384013368e6
1.8586839910731765e6 -5.850652358344426e6 -1.7174399384013368e6
1.8618630475756705e6 -5.849650005679413e6 -1.7174399384013368e6
1.8650421040781648e6 -5.848647653014398e6 -1.7174399384013368e6
1.8682211605806588e6 -5.847645300349384e6 -1.7174399384013368e6
1.8714002170831528e6 -5.84664294768437e6 -1.7174399384013368e6
1.8745792735856469e6 -5.845640595019355e6 -1.7174399384013368e6
1.8777583300881411e6 -5.844638242354341e6 -1.7174399384013368e6
1.8809373865906352e6 -5.843635889689327e6 -1.7174399384013368e6
1.8841164430931292e6 -5.842633537024313e6 -1.7174399384013368e6
1.8872954995956232e6 -5.841631184359298e6 -1.7174399384013368e6
1.8904745560981175e6 -5.840628831694284e6 -1.7174399384013368e6
1.8936536126006115e6 -5.83962647902927e6 -1.7174399384013368e6
1.7985514700246577e6 -5.870551970284074e6 -1.7142293965120113e6
1.8017305265271517e6 -5.869549617619059e6 -1.7142293965120113e6
1.804909583029646e6 -5.868547264954045e6 -1.7142293965120113e6
1.80808863953214e6 -5.867544912289031e6 -1.7142293965120113e6
1.811267696034634e6 -5.866542559624016e6 -1.7142293965120113e6
1.814446752537128e6 -5.865540206959003e6 -1.7142293965120113e6
1.8176258090396223e6 -5.864537854293988e6 -1.7142293965120113e6
1.8208048655421163e6 -5.8635355016289735e6 -1.7142293965120113e6
1.8239839220446104e6 -5.86253314896396e6 -1.7142293965120113e6
1.8271629785471044e6 -5.861530796298945e6 -1.7142293965120113e6
1.8303420350495987e6 -5.860528443633931e6 -1.7142293965120113e6
1.8335210915520927e6 -5.859526090968917e6 -1.7142293965120113e6
1.8367001480545867e6 -5.858523738303903e6 -1.7142293965120113e6
1.8398792045570808e6 -5.857521385638888e6 -1.7142293965120113e6
1.843058261059575e6 -5.856519032973874e6 -1.7142293965120113e6
1.846237317562069e6 -5.85551668030886e6 -1.7142293965120113e6
1.849416374064563e6 -5.854514327643845e6 -1.7142293965120113e6
1.8525954305670573e6 -5.853511974978832e6 -1.7142293965120113e6
1.8557744870695514e6 -5.852509622313817e6 -1.7142293965120113e6
1.8589535435720454e6 -5.8515072696488025e6 -1.7142293965120113e6
1.8621326000745394e6 -5.850504916983789e6 -1.7142293965120113e6
1.8653116565770337e6 -5.849502564318774e6 -1.7142293965120113e6
1.8684907130795277e6 -5.84850021165376e6 -1.7142293965120113e6
1.8716697695820217e6 -5.847497858988746e6 -1.7142293965120113e6
1.8748488260845158e6 -5.8464955063237315e6 -1.7142293965120113e6
1.87802788258701e6 -5.845493153658717e6 -1.7142293965120113e6
1.881206939089504e6 -5.844490800993703e6 -1.7142293965120113e6
1.884385995591998e6 -5.843488448328689e6 -1.7142293965120113e6
1.8875650520944921e6 -5.842486095663674e6 -1.7142293965120113e6
1.8907441085969864e6 -5.841483742998661e6 -1.7142293965120113e6
1.8939231650994804e6 -5.840481390333646e6 -1.7142293965120113e6
1.7988210225235266e6 -5.87140688158845e6 -1.7110188546226858e6
1.8020000790260206e6 -5.870404528923435e6 -1.7110188546226858e6
1.8051791355285149e6 -5.8694021762584215e6 -1.7110188546226858e6
1.808358192031009e6 -5.868399823593407e6 -1.7110188546226858e6
1.811537248533503e6 -5.867397470928392e6 -1.7110188546226858e6
1.814716305035997e6 -5.866395118263379e6 -1.7110188546226858e6
1.8178953615384912e6 -5.865392765598364e6 -1.7110188546226858e6
1.8210744180409852e6 -5.86439041293335e6 -1.7110188546226858e6
1.8242534745434793e6 -5.863388060268336e6 -1.7110188546226858e6
1.8274325310459733e6 -5.862385707603321e6 -1.7110188546226858e6
1.8306115875484676e6 -5.861383354938307e6 -1.7110188546226858e6
1.8337906440509616e6 -5.860381002273293e6 -1.7110188546226858e6
1.8369697005534556e6 -5.859378649608279e6 -1.7110188546226858e6
1.8401487570559497e6 -5.858376296943264e6 -1.7110188546226858e6
1.843327813558444e6 -5.85737394427825e6 -1.7110188546226858e6
1.846506870060938e6 -5.856371591613236e6 -1.7110188546226858e6
1.849685926563432e6 -5.855369238948221e6 -1.7110188546226858e6
1.8528649830659262e6 -5.854366886283208e6 -1.7110188546226858e6
1.8560440395684203e6 -5.853364533618193e6 -1.7110188546226858e6
1.8592230960709143e6 -5.852362180953179e6 -1.7110188546226858e6
1.8624021525734083e6 -5.851359828288165e6 -1.7110188546226858e6
1.8655812090759026e6 -5.85035747562315e6 -1.7110188546226858e6
1.8687602655783966e6 -5.849355122958136e6 -1.7110188546226858e6
1.8719393220808906e6 -5.848352770293122e6 -1.7110188546226858e6
1.8751183785833847e6 -5.847350417628108e6 -1.7110188546226858e6
1.878297435085879e6 -5.846348064963093e6 -1.7110188546226858e6
1.881476491588373e6 -5.845345712298079e6 -1.7110188546226858e6
1.884655548090867e6 -5.844343359633065e6 -1.7110188546226858e6
1.887834604593361e6 -5.84334100696805e6 -1.7110188546226858e6
1.8910136610958553e6 -5.842338654303037e6 -1.7110188546226858e6
1.8941927175983493e6 -5.841336301638022e6 -1.7110188546226858e6
1.7990905750223955e6 -5.872261792892827e6 -1.7078083127333603e6
1.8022696315248895e6 -5.871259440227812e6 -1.7078083127333603e6
1.8054486880273838e6 -5.8702570875627985e6 -1.7078083127333603e6
1.8086277445298778e6 -5.869254734897784e6 -1.7078083127333603e6
1.8118068010323718e6 -5.868252382232769e6 -1.7078083127333603e6
1.8149858575348658e6 -5.867250029567756e6 -1.7078083127333603e6
1.81816491403736e6 -5.866247676902741e6 -1.7078083127333603e6
1.8213439705398541e6 -5.865245324237727e6 -1.7078083127333603e6
1.8245230270423482e6 -5.864242971572713e6 -1.7078083127333603e6
1.8277020835448422e6 -5.863240618907698e6 -1.7078083127333603e6
1.8308811400473365e6 -5.862238266242684e6 -1.7078083127333603e6
1.8340601965498305e6 -5.86123591357767e6 -1.7078083127333603e6
1.8372392530523245e6 -5.860233560912656e6 -1.7078083127333603e6
1.8404183095548186e6 -5.859231208247641e6 -1.7078083127333603e6
1.8435973660573128e6 -5.8582288555826275e6 -1.7078083127333603e6
1.8467764225598068e6 -5.857226502917613e6 -1.7078083127333603e6
1.8499554790623009e6 -5.856224150252598e6 -1.7078083127333603e6
1.8531345355647951e6 -5.855221797587585e6 -1.7078083127333603e6
1.8563135920672892e6 -5.85421944492257e6 -1.7078083127333603e6
1.8594926485697832e6 -5.853217092257556e6 -1.7078083127333603e6
1.8626717050722772e6 -5.852214739592542e6 -1.7078083127333603e6
1.8658507615747715e6 -5.851212386927527e6 -1.7078083127333603e6
1.8690298180772655e6 -5.850210034262513e6 -1.7078083127333603e6
1.8722088745797595e6 -5.849207681597499e6 -1.7078083127333603e6
1.8753879310822536e6 -5.848205328932485e6 -1.7078083127333603e6
1.8785669875847478e6 -5.84720297626747e6 -1.7078083127333603e6
1.8817460440872419e6 -5.846200623602456e6 -1.7078083127333603e6
1.884925100589736e6 -5.845198270937442e6 -1.7078083127333603e6
1.88810415709223e6 -5.844195918272427e6 -1.7078083127333603e6
1.8912832135947242e6 -5.843193565607414e6 -1.7078083127333603e6
1.8944622700972182e6 -5.842191212942399e6 -1.7078083127333603e6
1.7993601275212644e6 -5.873116704197203e6 -1.7045977708440346e6
1.8025391840237584e6 -5.872114351532188e6 -1.7045977708440346e6
1.8057182405262527e6 -5.871111998867175e6 -1.7045977708440346e6
1.8088972970287467e6 -5.87010964620216e6 -1.7045977708440346e6
1.8120763535312407e6 -5.8691072935371455e6 -1.7045977708440346e6
1.8152554100337347e6 -5.868104940872132e6 -1.7045977708440346e6
1.818434466536229e6 -5.867102588207117e6 -1.7045977708440346e6
1.821613523038723e6 -5.866100235542103e6 -1.7045977708440346e6
1.824792579541217e6 -5.865097882877089e6 -1.7045977708440346e6
1.827971636043711e6 -5.8640955302120745e6 -1.7045977708440346e6
1.8311506925462054e6 -5.86309317754706e6 -1.7045977708440346e6
1.8343297490486994e6 -5.862090824882046e6 -1.7045977708440346e6
1.8375088055511934e6 -5.861088472217032e6 -1.7045977708440346e6
1.8406878620536875e6 -5.860086119552017e6 -1.7045977708440346e6
1.8438669185561817e6 -5.859083766887004e6 -1.7045977708440346e6
1.8470459750586757e6 -5.858081414221989e6 -1.7045977708440346e6
1.8502250315611698e6 -5.857079061556974e6 -1.7045977708440346e6
1.853404088063664e6 -5.856076708891961e6 -1.7045977708440346e6
1.856583144566158e6 -5.855074356226946e6 -1.7045977708440346e6
1.859762201068652e6 -5.854072003561932e6 -1.7045977708440346e6
1.8629412575711461e6 -5.853069650896918e6 -1.7045977708440346e6
1.8661203140736404e6 -5.852067298231903e6 -1.7045977708440346e6
1.8692993705761344e6 -5.851064945566889e6 -1.7045977708440346e6
1.8724784270786284e6 -5.850062592901875e6 -1.7045977708440346e6
1.8756574835811225e6 -5.849060240236861e6 -1.7045977708440346e6
1.8788365400836167e6 -5.848057887571846e6 -1.7045977708440346e6
1.8820155965861108e6 -5.8470555349068325e6 -1.7045977708440346e6
1.8851946530886048e6 -5.846053182241818e6 -1.7045977708440346e6
1.8883737095910988e6 -5.845050829576803e6 -1.7045977708440346e6
1.891552766093593e6 -5.84404847691179e6 -1.7045977708440346e6
1.8947318225960871e6 -5.843046124246775e6 -1.7045977708440346e6
1.799629680020133e6 -5.87397161550158e6 -1.7013872289547091e6
1.802808736522627e6 -5.872969262836565e6 -1.7013872289547091e6
1.8059877930251213e6 -5.871966910171552e6 -1.7013872289547091e6
1.8091668495276154e6 -5.870964557506537e6 -1.7013872289547091e6
1.8123459060301094e6 -5.8699622048415225e6 -1.7013872289547091e6
1.8155249625326034e6 -5.868959852176509e6 -1.7013872289547091e6
1.8187040190350977e6 -5.867957499511494e6 -1.7013872289547091e6
1.8218830755375917e6 -5.86695514684648e6 -1.7013872289547091e6
1.8250621320400857e6 -5.865952794181466e6 -1.7013872289547091e6
1.8282411885425798e6 -5.864950441516452e6 -1.7013872289547091e6
1.831420245045074e6 -5.863948088851437e6 -1.7013872289547091e6
1.834599301547568e6 -5.862945736186423e6 -1.7013872289547091e6
1.837778358050062e6 -5.861943383521409e6 -1.7013872289547091e6
1.8409574145525561e6 -5.860941030856394e6 -1.7013872289547091e6
1.8441364710550504e6 -5.859938678191381e6 -1.7013872289547091e6
1.8473155275575444e6 -5.858936325526366e6 -1.7013872289547091e6
1.8504945840600384e6 -5.857933972861351e6 -1.7013872289547091e6
1.8536736405625327e6 -5.856931620196338e6 -1.7013872289547091e6
1.8568526970650267e6 -5.855929267531323e6 -1.7013872289547091e6
1.8600317535675208e6 -5.854926914866309e6 -1.7013872289547091e6
1.8632108100700148e6 -5.853924562201295e6 -1.7013872289547091e6
1.866389866572509e6 -5.8529222095362805e6 -1.7013872289547091e6
1.869568923075003e6 -5.851919856871266e6 -1.7013872289547091e6
1.872747979577497e6 -5.850917504206252e6 -1.7013872289547091e6
1.8759270360799911e6 -5.849915151541238e6 -1.7013872289547091e6
1.8791060925824854e6 -5.848912798876223e6 -1.7013872289547091e6
1.8822851490849794e6 -5.8479104462112095e6 -1.7013872289547091e6
1.8854642055874735e6 -5.846908093546195e6 -1.7013872289547091e6
1.8886432620899675e6 -5.84590574088118e6 -1.7013872289547091e6
1.8918223185924618e6 -5.844903388216167e6 -1.7013872289547091e6
1.8950013750949558e6 -5.843901035551152e6 -1.7013872289547091e6
1.799899232519002e6 -5.874826526805956e6 -1.6981766870653837e6
1.803078289021496e6 -5.873824174140941e6 -1.6981766870653837e6
1.8062573455239902e6 -5.872821821475928e6 -1.6981766870653837e6
1.8094364020264843e6 -5.871819468810913e6 -1.6981766870653837e6
1.8126154585289783e6 -5.870817116145899e6 -1.6981766870653837e6
1.8157945150314723e6 -5.869814763480885e6 -1.6981766870653837e6
1.8189735715339666e6 -5.86881241081587e6 -1.6981766870653837e6
1.8221526280364606e6 -5.867810058150856e6 -1.6981766870653837e6
1.8253316845389546e6 -5.866807705485842e6 -1.6981766870653837e6
1.8285107410414487e6 -5.865805352820828e6 -1.6981766870653837e6
1.831689797543943e6 -5.864803000155813e6 -1.6981766870653837e6
1.834868854046437e6 -5.863800647490799e6 -1.6981766870653837e6
1.838047910548931e6 -5.862798294825785e6 -1.6981766870653837e6
1.841226967051425e6 -5.86179594216077e6 -1.6981766870653837e6
1.8444060235539193e6 -5.860793589495757e6 -1.6981766870653837e6
1.8475850800564133e6 -5.859791236830742e6 -1.6981766870653837e6
1.8507641365589073e6 -5.8587888841657275e6 -1.6981766870653837e6
1.8539431930614016e6 -5.857786531500714e6 -1.6981766870653837e6
1.8571222495638956e6 -5.856784178835699e6 -1.6981766870653837e6
1.8603013060663897e6 -5.855781826170685e6 -1.6981766870653837e6
1.8634803625688837e6 -5.854779473505671e6 -1.6981766870653837e6
1.866659419071378e6 -5.853777120840657e6 -1.6981766870653837e6
1.869838475573872e6 -5.852774768175642e6 -1.6981766870653837e6
1.873017532076366e6 -5.851772415510628e6 -1.6981766870653837e6
1.87619658857886e6 -5.850770062845614e6 -1.6981766870653837e6
1.8793756450813543e6 -5.849767710180599e6 -1.6981766870653837e6
1.8825547015838483e6 -5.848765357515586e6 -1.6981766870653837e6
1.8857337580863424e6 -5.847763004850571e6 -1.6981766870653837e6
1.8889128145888364e6 -5.8467606521855565e6 -1.6981766870653837e6
1.8920918710913307e6 -5.845758299520543e6 -1.6981766870653837e6
1.8952709275938247e6 -5.844755946855528e6 -1.6981766870653837e6
1.8001687850178708e6 -5.875681438110333e6 -1.6949661451760582e6
1.8033478415203649e6 -5.874679085445318e6 -1.6949661451760582e6
1.8065268980228591e6 -5.873676732780305e6 -1.6949661451760582e6
1.8097059545253532e6 -5.87267438011529e6 -1.6949661451760582e6
1.8128850110278472e6 -5.871672027450276e6 -1.6949661451760582e6
1.8160640675303412e6 -5.870669674785262e6 -1.6949661451760582e6
1.8192431240328355e6 -5.869667322120247e6 -1.6949661451760582e6
1.8224221805353295e6 -5.868664969455233e6 -1.6949661451760582e6
1.8256012370378235e6 -5.867662616790219e6 -1.6949661451760582e6
1.8287802935403176e6 -5.866660264125205e6 -1.6949661451760582e6
1.8319593500428118e6 -5.86565791146019e6 -1.6949661451760582e6
1.8351384065453059e6 -5.864655558795176e6 -1.6949661451760582e6
1.8383174630478e6 -5.863653206130162e6 -1.6949661451760582e6
1.841496519550294e6 -5.862650853465147e6 -1.6949661451760582e6
1.8446755760527882e6 -5.861648500800134e6 -1.6949661451760582e6
1.8478546325552822e6 -5.860646148135119e6 -1.6949661451760582e6
1.8510336890577762e6 -5.859643795470105e6 -1.6949661451760582e6
1.8542127455602705e6 -5.858641442805091e6 -1.6949661451760582e6
1.8573918020627645e6 -5.857639090140076e6 -1.6949661451760582e6
1.8605708585652586e6 -5.856636737475062e6 -1.6949661451760582e6
1.8637499150677526e6 -5.855634384810048e6 -1.6949661451760582e6
1.8669289715702469e6 -5.854632032145034e6 -1.6949661451760582e6
1.8701080280727409e6 -5.853629679480019e6 -1.6949661451760582e6
1.873287084575235e6 -5.852627326815005e6 -1.6949661451760582e6
1.876466141077729e6 -5.851624974149991e6 -1.6949661451760582e6
1.8796451975802232e6 -5.850622621484976e6 -1.6949661451760582e6
1.8828242540827172e6 -5.849620268819963e6 -1.6949661451760582e6
1.8860033105852113e6 -5.848617916154948e6 -1.6949661451760582e6
1.8891823670877053e6 -5.8476155634899335e6 -1.6949661451760582e6
1.8923614235901996e6 -5.84661321082492e6 -1.6949661451760582e6
1.8955404800926936e6 -5.845610858159905e6 -1.6949661451760582e6
1.8004383375167397e6 -5.876536349414709e6 -1.6917556032867327e6
1.8036173940192338e6 -5.875533996749694e6 -1.6917556032867327e6
1.806796450521728e6 -5.874531644084681e6 -1.6917556032867327e6
1.809975507024222e6 -5.873529291419666e6 -1.6917556032867327e6
1.813154563526716e6 -5.872526938754652e6 -1.6917556032867327e6
1.81633362002921e6 -5.871524586089638e6 -1.6917556032867327e6
1.8195126765317044e6 -5.8705222334246235e6 -1.6917556032867327e6
1.8226917330341984e6 -5.869519880759609e6 -1.6917556032867327e6
1.8258707895366924e6 -5.868517528094595e6 -1.6917556032867327e6
1.8290498460391865e6 -5.867515175429581e6 -1.6917556032867327e6
1.8322289025416807e6 -5.866512822764566e6 -1.6917556032867327e6
1.8354079590441748e6 -5.865510470099553e6 -1.6917556032867327e6
1.8385870155466688e6 -5.864508117434538e6 -1.6917556032867327e6
1.8417660720491628e6 -5.863505764769523e6 -1.6917556032867327e6
1.844945128551657e6 -5.86250341210451e6 -1.6917556032867327e6
1.848124185054151e6 -5.861501059439495e6 -1.6917556032867327e6
1.8513032415566451e6 -5.860498706774481e6 -1.6917556032867327e6
1.8544822980591394e6 -5.859496354109467e6 -1.6917556032867327e6
1.8576613545616334e6 -5.858494001444452e6 -1.6917556032867327e6
1.8608404110641275e6 -5.857491648779438e6 -1.6917556032867327e6
1.8640194675666215e6 -5.856489296114424e6 -1.6917556032867327e6
1.8671985240691158e6 -5.85548694344941e6 -1.6917556032867327e6
1.8703775805716098e6 -5.854484590784395e6 -1.6917556032867327e6
1.8735566370741038e6 -5.8534822381193815e6 -1.6917556032867327e6
1.8767356935765978e6 -5.852479885454367e6 -1.6917556032867327e6
1.879914750079092e6 -5.851477532789352e6 -1.6917556032867327e6
1.8830938065815861e6 -5.850475180124339e6 -1.6917556032867327e6
1.8862728630840802e6 -5.849472827459324e6 -1.6917556032867327e6
1.8894519195865742e6 -5.84847047479431e6 -1.6917556032867327e6
1.8926309760890685e6 -5.847468122129296e6 -1.6917556032867327e6
1.8958100325915625e6 -5.846465769464281e6 -1.6917556032867327e6
1.8007078900156086e6 -5.877391260719086e6 -1.688545061397407e6
1.8038869465181027e6 -5.8763889080540715e6 -1.688545061397407e6
1.807066003020597e6 -5.875386555389058e6 -1.688545061397407e6
1.810245059523091e6 -5.874384202724043e6 -1.688545061397407e6
1.813424116025585e6 -5.873381850059029e6 -1.688545061397407e6
1.816603172528079e6 -5.872379497394015e6 -1.688545061397407e6
1.8197822290305733e6 -5.8713771447290005e6 -1.688545061397407e6
1.8229612855330673e6 -5.870374792063986e6 -1.688545061397407e6
1.8261403420355613e6 -5.869372439398972e6 -1.688545061397407e6
1.8293193985380554e6 -5.868370086733958e6 -1.688545061397407e6
1.8324984550405496e6 -5.867367734068943e6 -1.688545061397407e6
1.8356775115430437e6 -5.86636538140393e6 -1.688545061397407e6
1.8388565680455377e6 -5.865363028738915e6 -1.688545061397407e6
1.8420356245480317e6 -5.8643606760739e6 -1.688545061397407e6
1.845214681050526e6 -5.863358323408887e6 -1.688545061397407e6
1.84839373755302e6 -5.862355970743872e6 -1.688545061397407e6
1.851572794055514e6 -5.861353618078858e6 -1.688545061397407e6
1.8547518505580083e6 -5.860351265413844e6 -1.688545061397407e6
1.8579309070605023e6 -5.859348912748829e6 -1.688545061397407e6
1.8611099635629964e6 -5.858346560083815e6 -1.688545061397407e6
1.8642890200654904e6 -5.857344207418801e6 -1.688545061397407e6
1.8674680765679847e6 -5.856341854753787e6 -1.688545061397407e6
1.8706471330704787e6 -5.855339502088772e6 -1.688545061397407e6
1.8738261895729727e6 -5.8543371494237585e6 -1.688545061397407e6
1.8770052460754667e6 -5.853334796758744e6 -1.688545061397407e6
1.880184302577961e6 -5.852332444093729e6 -1.688545061397407e6
1.883363359080455e6 -5.851330091428716e6 -1.688545061397407e6
1.886542415582949e6 -5.850327738763701e6 -1.688545061397407e6
1.889721472085443e6 -5.849325386098687e6 -1.688545061397407e6
1.8929005285879374e6 -5.848323033433673e6 -1.688545061397407e6
1.8960795850904314e6 -5.847320680768658e6 -1.688545061397407e6
1.8009774425144775e6 -5.878246172023462e6 -1.6853345195080815e6
1.8041564990169716e6 -5.877243819358448e6 -1.6853345195080815e6
1.8073355555194658e6 -5.876241466693434e6 -1.6853345195080815e6
1.8105146120219599e6 -5.875239114028419e6 -1.6853345195080815e6
1.8136936685244539e6 -5.874236761363405e6 -1.6853345195080815e6
1.816872725026948e6 -5.873234408698391e6 -1.6853345195080815e6
1.8200517815294422e6 -5.872232056033377e6 -1.6853345195080815e6
1.8232308380319362e6 -5.871229703368362e6 -1.6853345195080815e6
1.8264098945344302e6 -5.870227350703348e6 -1.6853345195080815e6
1.8295889510369243e6 -5.869224998038334e6 -1.6853345195080815e6
1.8327680075394185e6 -5.868222645373319e6 -1.6853345195080815e6
1.8359470640419126e6 -5.867220292708306e6 -1.6853345195080815e6
1.8391261205444066e6 -5.866217940043291e6 -1.6853345195080815e6
1.8423051770469006e6 -5.8652155873782765e6 -1.6853345195080815e6
1.8454842335493949e6 -5.864213234713263e6 -1.6853345195080815e6
1.848663290051889e6 -5.863210882048248e6 -1.6853345195080815e6
1.851842346554383e6 -5.862208529383234e6 -1.6853345195080815e6
1.8550214030568772e6 -5.86120617671822e6 -1.6853345195080815e6
1.8582004595593712e6 -5.860203824053206e6 -1.6853345195080815e6
1.8613795160618653e6 -5.859201471388191e6 -1.6853345195080815e6
1.8645585725643593e6 -5.858199118723177e6 -1.6853345195080815e6
1.8677376290668536e6 -5.857196766058163e6 -1.6853345195080815e6
1.8709166855693476e6 -5.856194413393148e6 -1.6853345195080815e6
1.8740957420718416e6 -5.855192060728135e6 -1.6853345195080815e6
1.8772747985743356e6 -5.85418970806312e6 -1.6853345195080815e6
1.88045385507683e6 -5.853187355398105e6 -1.6853345195080815e6
1.883632911579324e6 -5.852185002733092e6 -1.6853345195080815e6
1.886811968081818e6 -5.851182650068077e6 -1.6853345195080815e6
1.889991024584312e6 -5.850180297403063e6 -1.6853345195080815e6
1.8931700810868063e6 -5.849177944738049e6 -1.6853345195080815e6
1.8963491375893003e6 -5.8481755920730345e6 -1.6853345195080815e6
1.8012469950133462e6 -5.879101083327838e6 -1.682123977618756e6
1.8044260515158402e6 -5.878098730662824e6 -1.682123977618756e6
1.8076051080183345e6 -5.87709637799781e6 -1.682123977618756e6
1.8107841645208285e6 -5.876094025332795e6 -1.682123977618756e6
1.8139632210233225e6 -5.875091672667781e6 -1.682123977618756e6
1.8171422775258166e6 -5.874089320002767e6 -1.682123977618756e6
1.8203213340283108e6 -5.873086967337753e6 -1.682123977618756e6
1.8235003905308049e6 -5.872084614672738e6 -1.682123977618756e6
1.826679447033299e6 -5.8710822620077245e6 -1.682123977618756e6
1.829858503535793e6 -5.87007990934271e6 -1.682123977618756e6
1.8330375600382872e6 -5.869077556677695e6 -1.682123977618756e6
1.8362166165407812e6 -5.868075204012682e6 -1.682123977618756e6
1.8393956730432753e6 -5.867072851347667e6 -1.682123977618756e6
1.8425747295457693e6 -5.866070498682653e6 -1.682123977618756e6
1.8457537860482635e6 -5.865068146017639e6 -1.682123977618756e6
1.8489328425507576e6 -5.864065793352624e6 -1.682123977618756e6
1.8521118990532516e6 -5.86306344068761e6 -1.682123977618756e6
1.8552909555557459e6 -5.862061088022596e6 -1.682123977618756e6
1.85847001205824e6 -5.861058735357582e6 -1.682123977618756e6
1.861649068560734e6 -5.860056382692567e6 -1.682123977618756e6
1.864828125063228e6 -5.859054030027553e6 -1.682123977618756e6
1.8680071815657222e6 -5.858051677362539e6 -1.682123977618756e6
1.8711862380682162e6 -5.857049324697524e6 -1.682123977618756e6
1.8743652945707103e6 -5.856046972032511e6 -1.682123977618756e6
1.8775443510732043e6 -5.855044619367496e6 -1.682123977618756e6
1.8807234075756986e6 -5.854042266702482e6 -1.682123977618756e6
1.8839024640781926e6 -5.853039914037468e6 -1.682123977618756e6
1.8870815205806866e6 -5.852037561372453e6 -1.682123977618756e6
1.8902605770831807e6 -5.851035208707439e6 -1.682123977618756e6
1.893439633585675e6 -5.850032856042425e6 -1.682123977618756e6
1.896618690088169e6 -5.849030503377411e6 -1.682123977618756e6
1.801516547512215e6 -5.879955994632215e6 -1.6789134357294305e6
1.8046956040147091e6 -5.878953641967201e6 -1.6789134357294305e6
1.8078746605172034e6 -5.877951289302187e6 -1.6789134357294305e6
1.8110537170196974e6 -5.8769489366371725e6 -1.6789134357294305e6
1.8142327735221914e6 -5.875946583972158e6 -1.6789134357294305e6
1.8174118300246855e6 -5.874944231307144e6 -1.6789134357294305e6
1.8205908865271797e6 -5.87394187864213e6 -1.6789134357294305e6
1.8237699430296738e6 -5.872939525977115e6 -1.6789134357294305e6
1.8269489995321678e6 -5.8719371733121015e6 -1.6789134357294305e6
1.8301280560346618e6 -5.870934820647087e6 -1.6789134357294305e6
1.833307112537156e6 -5.869932467982072e6 -1.6789134357294305e6
1.8364861690396501e6 -5.868930115317059e6 -1.6789134357294305e6
1.8396652255421442e6 -5.867927762652044e6 -1.6789134357294305e6
1.8428442820446382e6 -5.86692540998703e6 -1.6789134357294305e6
1.8460233385471324e6 -5.865923057322016e6 -1.6789134357294305e6
1.8492023950496265e6 -5.864920704657001e6 -1.6789134357294305e6
1.8523814515521205e6 -5.863918351991987e6 -1.6789134357294305e6
1.8555605080546148e6 -5.862915999326973e6 -1.6789134357294305e6
1.8587395645571088e6 -5.861913646661959e6 -1.6789134357294305e6
1.8619186210596028e6 -5.860911293996944e6 -1.6789134357294305e6
1.8650976775620969e6 -5.85990894133193e6 -1.6789134357294305e6
1.8682767340645911e6 -5.858906588666916e6 -1.6789134357294305e6
1.8714557905670851e6 -5.857904236001901e6 -1.6789134357294305e6
1.8746348470695792e6 -5.856901883336888e6 -1.6789134357294305e6
1.8778139035720732e6 -5.855899530671873e6 -1.6789134357294305e6
1.8809929600745675e6 -5.854897178006859e6 -1.6789134357294305e6
1.8841720165770615e6 -5.853894825341845e6 -1.6789134357294305e6
1.8873510730795555e6 -5.85289247267683e6 -1.6789134357294305e6
1.8905301295820496e6 -5.851890120011816e6 -1.6789134357294305e6
1.8937091860845438e6 -5.850887767346802e6 -1.6789134357294305e6
1.8968882425870379e6 -5.849885414681788e6 -1.6789134357294305e6
1.801786100011084e6 -5.880810905936591e6 -1.675702893840105e6
1.804965156513578e6 -5.879808553271577e6 -1.675702893840105e6
1.8081442130160723e6 -5.878806200606563e6 -1.675702893840105e6
1.8113232695185663e6 -5.877803847941549e6 -1.675702893840105e6
1.8145023260210603e6 -5.876801495276534e6 -1.675702893840105e6
1.8176813825235544e6 -5.87579914261152e6 -1.675702893840105e6
1.8208604390260486e6 -5.874796789946506e6 -1.675702893840105e6
1.8240394955285427e6 -5.873794437281491e6 -1.675702893840105e6
1.8272185520310367e6 -5.872792084616478e6 -1.675702893840105e6
1.8303976085335307e6 -5.871789731951463e6 -1.675702893840105e6
1.833576665036025e6 -5.8707873792864485e6 -1.675702893840105e6
1.836755721538519e6 -5.869785026621435e6 -1.675702893840105e6
1.839934778041013e6 -5.86878267395642e6 -1.675702893840105e6
1.843113834543507e6 -5.867780321291406e6 -1.675702893840105e6
1.8462928910460013e6 -5.866777968626392e6 -1.675702893840105e6
1.8494719475484954e6 -5.8657756159613775e6 -1.675702893840105e6
1.8526510040509894e6 -5.864773263296363e6 -1.675702893840105e6
1.8558300605534837e6 -5.863770910631349e6 -1.675702893840105e6
1.8590091170559777e6 -5.862768557966335e6 -1.675702893840105e6
1.8621881735584717e6 -5.86176620530132e6 -1.675702893840105e6
1.8653672300609658e6 -5.860763852636307e6 -1.675702893840105e6
1.86854628656346e6 -5.859761499971292e6 -1.675702893840105e6
1.871725343065954e6 -5.858759147306277e6 -1.675702893840105e6
1.874904399568448e6 -5.857756794641264e6 -1.675702893840105e6
1.878083456070942e6 -5.856754441976249e6 -1.675702893840105e6
1.8812625125734364e6 -5.855752089311235e6 -1.675702893840105e6
1.8844415690759304e6 -5.854749736646221e6 -1.675702893840105e6
1.8876206255784244e6 -5.853747383981206e6 -1.675702893840105e6
1.8907996820809185e6 -5.852745031316192e6 -1.675702893840105e6
1.8939787385834127e6 -5.851742678651178e6 -1.675702893840105e6
1.8971577950859067e6 -5.850740325986164e6 -1.675702893840105e6
1.802055652509953e6 -5.881665817240968e6 -1.6724923519507796e6
1.805234709012447e6 -5.880663464575954e6 -1.6724923519507796e6
1.8084137655149412e6 -5.87966111191094e6 -1.6724923519507796e6
1.8115928220174352e6 -5.878658759245926e6 -1.6724923519507796e6
1.8147718785199292e6 -5.877656406580911e6 -1.6724923519507796e6
1.8179509350224233e6 -5.876654053915897e6 -1.6724923519507796e6
1.8211299915249175e6 -5.875651701250883e6 -1.6724923519507796e6
1.8243090480274116e6 -5.874649348585868e6 -1.6724923519507796e6
1.8274881045299056e6 -5.873646995920855e6 -1.6724923519507796e6
1.8306671610323996e6 -5.87264464325584e6 -1.6724923519507796e6
1.833846217534894e6 -5.8716422905908255e6 -1.6724923519507796e6
1.837025274037388e6 -5.870639937925812e6 -1.6724923519507796e6
1.840204330539882e6 -5.869637585260797e6 -1.6724923519507796e6
1.843383387042376e6 -5.868635232595783e6 -1.6724923519507796e6
1.8465624435448702e6 -5.867632879930769e6 -1.6724923519507796e6
1.8497415000473643e6 -5.8666305272657545e6 -1.6724923519507796e6
1.8529205565498583e6 -5.86562817460074e6 -1.6724923519507796e6
1.8560996130523526e6 -5.864625821935726e6 -1.6724923519507796e6
1.8592786695548466e6 -5.863623469270712e6 -1.6724923519507796e6
1.8624577260573406e6 -5.862621116605697e6 -1.6724923519507796e6
1.8656367825598347e6 -5.861618763940684e6 -1.6724923519507796e6
1.868815839062329e6 -5.860616411275669e6 -1.6724923519507796e6
1.871994895564823e6 -5.859614058610654e6 -1.6724923519507796e6
1.875173952067317e6 -5.858611705945641e6 -1.6724923519507796e6
1.878353008569811e6 -5.857609353280626e6 -1.6724923519507796e6
1.8815320650723053e6 -5.856607000615612e6 -1.6724923519507796e6
1.8847111215747993e6 -5.855604647950598e6 -1.6724923519507796e6
1.8878901780772933e6 -5.8546022952855835e6 -1.6724923519507796e6
1.8910692345797874e6 -5.853599942620569e6 -1.6724923519507796e6
1.8942482910822816e6 -5.852597589955555e6 -1.6724923519507796e6
1.8974273475847756e6 -5.851595237290541e6 -1.6724923519507796e6
1.8023252050088218e6 -5.882520728545344e6 -1.6692818100614538e6
1.8055042615113158e6 -5.88151837588033e6 -1.6692818100614538e6
1.80868331801381e6 -5.880516023215316e6 -1.6692818100614538e6
1.8118623745163041e6 -5.879513670550302e6 -1.6692818100614538e6
1.8150414310187981e6 -5.878511317885287e6 -1.6692818100614538e6
1.8182204875212922e6 -5.8775089652202735e6 -1.6692818100614538e6
1.8213995440237864e6 -5.876506612555259e6 -1.6692818100614538e6
1.8245786005262805e6 -5.875504259890244e6 -1.6692818100614538e6
1.8277576570287745e6 -5.874501907225231e6 -1.6692818100614538e6
1.8309367135312685e6 -5.873499554560216e6 -1.6692818100614538e6
1.8341157700337628e6 -5.872497201895202e6 -1.6692818100614538e6
1.8372948265362568e6 -5.871494849230188e6 -1.6692818100614538e6
1.8404738830387508e6 -5.870492496565173e6 -1.6692818100614538e6
1.8436529395412449e6 -5.869490143900159e6 -1.6692818100614538e6
1.8468319960437391e6 -5.868487791235145e6 -1.6692818100614538e6
1.8500110525462332e6 -5.867485438570131e6 -1.6692818100614538e6
1.8531901090487272e6 -5.866483085905116e6 -1.6692818100614538e6
1.8563691655512215e6 -5.865480733240102e6 -1.6692818100614538e6
1.8595482220537155e6 -5.864478380575088e6 -1.6692818100614538e6
1.8627272785562095e6 -5.863476027910073e6 -1.6692818100614538e6
1.8659063350587036e6 -5.86247367524506e6 -1.6692818100614538e6
1.8690853915611978e6 -5.861471322580045e6 -1.6692818100614538e6
1.8722644480636918e6 -5.8604689699150305e6 -1.6692818100614538e6
1.8754435045661859e6 -5.859466617250017e6 -1.6692818100614538e6
1.87862256106868e6 -5.858464264585002e6 -1.6692818100614538e6
1.8818016175711742e6 -5.857461911919988e6 -1.6692818100614538e6
1.8849806740736682e6 -5.856459559254974e6 -1.6692818100614538e6
1.8881597305761622e6 -5.85545720658996e6 -1.6692818100614538e6
1.8913387870786563e6 -5.854454853924945e6 -1.6692818100614538e6
1.8945178435811505e6 -5.853452501259931e6 -1.6692818100614538e6
1.8976969000836445e6 -5.852450148594917e6 -1.6692818100614538e6
1.8025947575076907e6 -5.883375639849721e6 -1.6660712681721284e6
1.8057738140101847e6 -5.882373287184707e6 -1.6660712681721284e6
1.808952870512679e6 -5.881370934519693e6 -1.6660712681721284e6
1.812131927015173e6 -5.880368581854679e6 -1.6660712681721284e6
1.815310983517667e6 -5.879366229189664e6 -1.6660712681721284e6
1.818490040020161e6 -5.8783638765246505e6 -1.6660712681721284e6
1.8216690965226553e6 -5.877361523859636e6 -1.6660712681721284e6
1.8248481530251494e6 -5.876359171194621e6 -1.6660712681721284e6
1.8280272095276434e6 -5.875356818529608e6 -1.6660712681721284e6
1.8312062660301374e6 -5.874354465864593e6 -1.6660712681721284e6
1.8343853225326317e6 -5.873352113199579e6 -1.6660712681721284e6
1.8375643790351257e6 -5.872349760534565e6 -1.6660712681721284e6
1.8407434355376197e6 -5.87134740786955e6 -1.6660712681721284e6
1.8439224920401138e6 -5.870345055204536e6 -1.6660712681721284e6
1.847101548542608e6 -5.869342702539522e6 -1.6660712681721284e6
1.850280605045102e6 -5.868340349874508e6 -1.6660712681721284e6
1.853459661547596e6 -5.867337997209493e6 -1.6660712681721284e6
1.8566387180500904e6 -5.866335644544479e6 -1.6660712681721284e6
1.8598177745525844e6 -5.865333291879465e6 -1.6660712681721284e6
1.8629968310550784e6 -5.86433093921445e6 -1.6660712681721284e6
1.8661758875575725e6 -5.863328586549437e6 -1.6660712681721284e6
1.8693549440600667e6 -5.862326233884422e6 -1.6660712681721284e6
1.8725340005625607e6 -5.861323881219408e6 -1.6660712681721284e6
1.8757130570650548e6 -5.860321528554394e6 -1.6660712681721284e6
1.8788921135675488e6 -5.859319175889379e6 -1.6660712681721284e6
1.882071170070043e6 -5.858316823224365e6 -1.6660712681721284e6
1.885250226572537e6 -5.857314470559351e6 -1.6660712681721284e6
1.8884292830750311e6 -5.856312117894337e6 -1.6660712681721284e6
1.8916083395775252e6 -5.855309765229322e6 -1.6660712681721284e6
1.8947873960800194e6 -5.854307412564308e6 -1.6660712681721284e6
1.8979664525825134e6 -5.853305059899294e6 -1.6660712681721284e6
3 0 1 32 0
3 0 32 31 0
3 1 2 33 0
3 1 33 32 0
3 2 3 34 0
3 2 34 33 0
3 3 4 35 0
3 3 35 34 0
3 4 5 36 0
3 4 36 35 0
3 5 6 37 0
3 5 37 36 0
3 6 7 38 0
3 6 38 37 0
3 7 8 39 0
3 7 39 38 0
3 8 9 40 0
3 8 40 39 0
3 9 10 41 0
3 9 41 40 0
3 10 11 42 0
3 10 42 41 0
3 11 12 43 0
3 11 43 42 0
3 12 13 44 0
3 12 44 43 0
3 13 14 45 0
3 13 45 44 0
3 14 15 46 0
3 14 46 45 0
3 15 16 47 0
3 15 47 46 0
3 16 17 48 0
3 16 48 47 0
3 17 18 49 0
3 17 49 48 0
3 18 19 50 0
3 18 50 49 0
3 19 20 51 0
3 19 51 50 0
3 20 21 52 0
3 20 52 51 0
3 21 22 53 0
3 21 53 52 0
3 22 23 54 0
3 22 54 53 0
3 23 24 55 0
3 23 55 54 0
3 24 25 56 0
3 24 56 55 0
3 25 26 57 0
3 25 57 56 0
3 26 27 58 0
3 26 58 57 0
3 27 28 59 0
3 27 59 58 0
3 28 29 60 0
3 28 60 59 0
3 29 30 61 0
3 29 61 60 0
3 31 32 63 0
3 31 63 62 0
3 32 33 64 0
3 32 64 63 0
3 33 34 65 0
3 33 65 64 0
3 34 35 66 0
3 34 66 65 0
3 35 36 67 0
3 35 67 66 0
3 36 37 68 0
3 36 68 67 0
3 37 38 69 0
3 37 69 68 0
3 38 39 70 0
3 38 70 69 0
3 39 40 71 0
3 39 71 70 0
3 40 41 72 0
3 40 72 71 0
3 41 42 73 0
3 41 73 72 0
3 42 43 74 0
3 42 74 73 0
3 43 44 75 0
3 43 75 74 0
3 44 45 76 0
3 44 76 75 0
3 45 46 77 0
3 45 77 76 0
3 46 47 78 0
3 46 78 77 0
3 47 48 79 0
3 47 79 78 0
3 48 49 80 0
3 48 80 79 0
3 49 50 81 0
3 49 81 80 0
3 50 51 82 0
3 50 82 81 0
3 51 52 83 0
3 51 83 82 0
3 52 53 84 0
3 52 84 83 0
3 53 54 85 0
3 53 85 84 0
3 54 55 86 0
3 54 86 85 0
3 55 56 87 0
3 55 87 86 0
3 56 57 88 0
3 56 88 87 0
3 57 58 89 0
3 57 89 88 0
3 58 59 90 0
3 58 90 89 0
3 59 60 91 0
3 59 91 90 0
3 60 61 92 0
3 60 92 91 0
3 62 63 94 0
3 62 94 93 0
3 63 64 95 0
3 63 95 94 0
3 64 65 96 0
3 64 96 95 0
3 65 66 97 0
3 65 97 96 0
3 66 67 98 0
3 66 98 97 0
3 67 68 99 0
3 67 99 98 0
3 68 69 100 0
3 68 100 99 0
3 69 70 101 0
3 69 101 100 0
3 70 71 102 0
3 70 102 101 0
3 71 72 103 0
3 71 103 102 0
3 72 73 104 0
3 72 104 103 0
3 73 74 105 0
3 73 105 104 0
3 74 75 106 0
3 74 106 105 0
3 75 76 107 0
3 75 107 106 0
3 76 77 108 0
3 76 108 107 0
3 77 78 109 0
3 77 109 108 0
3 78 79 110 0
3 78 110 109 0
3 79 80 111 0
3 79 111 110 0
3 80 81 112 0
3 80 112 111 0
3 81 82 113 0
3 81 113 112 0
3 82 83 114 0
3 82 114 113 0
3 83 84 115 0
3 83 115 114 0
3 84 85 116 0
3 84 116 115 0
3 85 86 117 0
3 85 117 116 0
3 86 87 118 0
3 86 118 117 0
3 87 88 119 0
3 87 119 118 0
3 88 89 120 0
3 88 120 119 0
3 89 90 121 0
3 89 121 120 0
3 90 91 122 0
3 90 122 121 0
3 91 92 123 0
3 91 123 122 0
3 93 94 125 0
3 93 125 124 0
3 94 95 126 0
3 94 126 125 0
3 95 96 127 0
3 95 127 126 0
3 96 97 128 0
3 96 128 127 0
3 97 98 129 0
3 97 129 128 0
3 98 99 130 0
3 98 130 129 0
3 99 100 131 0
3 99 131 130 0
3 100 101 132 0
3 100 132 131 0
3 101 102 133 0
3 101 133 132 0
3 102 103 134 0
3 102 134 133 0
3 103 104 135 0
3 103 135 134 0
3 104 105 136 0
3 104 136 135 0
3 105 106 137 0
3 105 137 136 0
3 106 107 138 0
3 106 138 137 0
3 107 108 139 0
3 107 139 138 0
3 108 109 140 0
3 108 140 139 0
3 109 110 141 0
3 109 141 140 0
3 110 111 142 0
3 110 142 141 0
3 111 112 143 0
3 111 143 142 0
3 112 113 144 0
3 112 144 143 0
3 113 114 145 0
3 113 145 144 0
3 114 115 146 0
3 114 146 145 0
3 115 116 147 0
3 115 147 146 0
3 116 117 148 0
3 116 148 147 0
3 117 118 149 0
3 117 149 148 0
3 118 119 150 0
3 118 150 149 0
3 119 120 151 0
3 119 151 150 0
3 120 121 152 0
3 120 152 151 0
3 121 122 153 0
3 121 153 152 0
3 122 123 154 0
3 122 154 153 0
3 124 125 156 0
3 124 156 155 0
3 125 126 157 0
3 125 157 156 0
3 126 127 158 0
3 126 158 157 0
3 127 128 159 0
3 127 159 158 0
3 128 129 160 0
3 128 160 159 0
3 129 130 161 0
3 129 161 160 0
3 130 131 162 0
3 130 162 161 0
3 131 132 163 0
3 131 163 162 0
3 132 133 164 0
3 132 164 163 0
3 133 134 165 0
3 133 165 164 0
3 134 135 166 0
3 134 166 165 0
3 135 136 167 0
3 135 167 166 0
3 136 137 168 0
3 136 168 167 0
3 137 138 169 0
3 137 169 168 0
3 138 139 170 0
3 138 170 169 0
3 139 140 171 0
3 139 171 170 0
3 140 141 172 0
3 140 172 171 0
3 141 142 173 0
3 141 173 172 0
3 142 143 174 0
3 142 174 173 0
3 143 144 175 0
3 143 175 174 0
3 144 145 176 0
3 144 176 175 0
3 145 146 177 0
3 145 177 176 0
3 146 147 178 0
3 146 178 177 0
3 147 148 179 0
3 147 179 178 0
3 148 149 180 0
3 148 180 179 0
3 149 150 181 0
3 149 181 180 0
3 150 151 182 0
3 150 182 181 0
3 151 152 183 0
3 151 183 182 0
3 152 153 184 0
3 152 184 183 0
3 153 154 185 0
3 153 185 184 0
3 155 156 187 0
3 155 187 186 0
3 156 157 188 0
3 156 188 187 0
3 157 158 189 0
3 157 189 188 0
3 158 159 190 0
3 158 190 189 0
3 159 160 191 0
3 159 191 190 0
3 160 161 192 0
3 160 192 191 0
3 161 162 193 0
3 161 193 192 0
3 162 163 194 0
3 162 194 193 0
3 163 164 195 0
3 163 195 194 0
3 164 165 196 0
3 164 196 195 0
3 165 166 197 0
3 165 197 196 0
3 166 167 198 0
3 166 198 197 0
3 167 168 199 0
3 167 199 198 0
3 168 169 200 0
3 168 200 199 0
3 169 170 201 0
3 169 201 200 0
3 170 171 202 0
3 170 202 201 0
3 171 172 203 0
3 171 203 202 0
3 172 173 204 0
3 172 204 203 0
3 173 174 205 0
3 173 205 204 0
3 174 175 206 0
3 174 206 205 0
3 175 176 207 0
3 175 207 206 0
3 176 177 208 0
3 176 208 207 0
3 177 178 209 0
3 177 209 208 0
3 178 179 210 0
3 178 210 209 0
3 179 180 211 0
3 179 211 210 0
3 180 181 212 0
3 180 212 211 0
3 181 182 213 0
3 181 213 212 0
3 182 183 214 0
3 182 214 213 0
3 183 184 215 0
3 183 215 214 0
3 184 185 216 0
3 184 216 215 0
3 186 187 218 0
3 186 218 217 0
3 187 188 219 0
3 187 219 218 0
3 188 189 220 0
3 188 220 219 0
3 189 190 221 0
3 189 221 220 0
3 190 191 222 0
3 190 222 221 0
3 191 192 223 0
3 191 223 222 0
3 192 193 224 0
3 192 224 223 0
3 193 194 225 0
3 193 225 224 0
3 194 195 226 0
3 194 226 225 0
3 195 196 227 0
3 195 227 226 0
3 196 197 228 0
3 196 228 227 0
3 197 198 229 0
3 197 229 228 0
3 198 199 230 0
3 198 230 229 0
3 199 200 231 0
3 199 231 230 0
3 200 201 232 0
3 200 232 231 0
3 201 202 233 0
3 201 233 232 0
3 202 203 234 0
3 202 234 233 0
3 203 204 235 0
3 203 235 234 0
3 204 205 236 0
3 204 236 235 0
3 205 206 237 0
3 205 237 236 0
3 206 207 238 0
3 206 238 237 0
3 207 208 239 0
3 207 239 238 0
3 208 209 240 0
3 208 240 239 0
3 209 210 241 0
3 209 241 240 0
3 210 211 242 0
3 210 242 241 0
3 211 212 243 0
3 211 243 242 0
3 212 213 244 0
3 212 244 243 0
3 213 214 245 0
3 213 245 244 0
3 214 215 246 0
3 214 246 245 0
3 215 216 247 0
3 215 247 246 0
3 217 218 249 0
3 217 249 248 0
3 218 219 250 0
3 218 250 249 0
3 219 220 251 0
3 219 251 250 0
3 220 221 252 0
3 220 252 251 0
3 221 222 253 0
3 221 253 252 0
3 222 223 254 0
3 222 254 253 0
3 223 224 255 0
3 223 255 254 0
3 224 225 256 0
3 224 256 255 0
3 225 226 257 0
3 225 257 256 1
3 226 227 258 0
3 226 258 257 1
3 227 228 259 0
3 227 259 258 1
3 228 229 260 0
3 228 260 259 1
3 229 230 261 0
3 229 261 260 1
3 230 231 262 0
3 230 262 261 1
3 231 232 263 0
3 231 263 262 1
3 232 233 264 0
3 232 264 263 1
3 233 234 265 0
3 233 265 264 1
3 234 235 266 0
3 234 266 265 1
3 235 236 267 0
3 235 267 266 1
3 236 237 268 0
3 236 268 267 1
3 237 238 269 0
3 237 269 268 1
3 238 239 270 0
3 238 270 269 1
3 239 240 271 0
3 239 271 270 1
3 240 241 272 0
3 240 272 271 0
3 241 242 273 0
3 241 273 272 0
3 242 243 274 0
3 242 274 273 0
3 243 244 275 0
3 243 275 274 0
3 244 245 276 0
3 244 276 275 0
3 245 246 277 0
3 245 277 276 0
3 246 247 278 0
3 246 278 277 0
3 248 249 280 0
3 248 280 279 0
3 249 250 281 0
3 249 281 280 0
3 250 251 282 0
3 250 282 281 0
3 251 252 283 0
3 251 283 282 0
3 252 253 284 0
3 252 284 283 0
3 253 254 285 0
3 253 285 284 0
3 254 255 286 0
3 254 286 285 0
3 255 256 287 1
3 255 287 286 0
3 256 257 288 1
3 256 288 287 1
3 257 258 289 1
3 257 289 288 1
3 258 259 290 1
3 258 290 289 1
3 259 260 291 1
3 259 291 290 1
3 260 261 292 1
3 260 292 291 1
3 261 262 293 1
3 261 293 292 1
3 262 263 294 1
3 262 294 293 1
3 263 264 295 1
3 263 295 294 1
3 264 265 296 1
3 264 296 295 1
3 265 266 297 1
3 265 297 296 1
3 266 267 298 1
3 266 298 297 1
3 267 268 299 1
3 267 299 298 1
3 268 269 300 1
3 268 300 299 1
3 269 270 301 1
3 269 301 300 1
3 270 271 302 0
3 270 302 301 1
3 271 272 303 0
3 271 303 302 0
3 272 273 304 0
3 272 304 303 0
3 273 274 305 0
3 273 305 304 0
3 274 275 306 0
3 274 306 305 0
3 275 276 307 0
3 275 307 306 0
3 276 277 308 0
3 276 308 307 0
3 277 278 309 0
3 277 309 308 0
3 279 280 311 0
3 279 311 310 0
3 280 281 312 0
3 280 312 311 0
3 281 282 313 0
3 281 313 312 0
3 282 283 314 0
3 282 314 313 0
3 283 284 315 0
3 283 315 314 0
3 284 285 316 0
3 284 316 315 0
3 285 286 317 0
3 285 317 316 0
3 286 287 318 1
3 286 318 317 0
3 287 288 319 1
3 287 319 318 1
3 288 289 320 1
3 288 320 319 1
3 289 290 321 1
3 289 321 320 1
3 290 291 322 1
3 290 322 321 1
3 291 292 323 1
3 291 323 322 1
3 292 293 324 1
3 292 324 323 1
3 293 294 325 1
3 293 325 324 1
3 294 295 326 1
3 294 326 325 1
3 295 296 327 1
3 295 327 326 1
3 296 297 328 1
3 296 328 327 1
3 297 298 329 1
3 297 329 328 1
3 298 299 330 1
3 298 330 329 1
3 299 300 331 1
3 299 331 330 1
3 300 301 332 1
3 300 332 331 1
3 301 302 333 0
3 301 333 332 1
3 302 303 334 0
3 302 334 333 0
3 303 304 335 0
3 303 335 334 0
3 304 305 336 0
3 304 336 335 0
3 305 306 337 0
3 305 337 336 0
3 306 307 338 0
3 306 338 337 0
3 307 308 339 0
3 307 339 338 0
3 308 309 340 0
3 308 340 339 0
3 310 311 342 0
3 310 342 341 0
3 311 312 343 0
3 311 343 342 0
3 312 313 344 0
3 312 344 343 0
3 313 314 345 0
3 313 345 344 0
3 314 315 346 0
3 314 346 345 0
3 315 316 347 0
3 315 347 346 0
3 316 317 348 0
3 316 348 347 0
3 317 318 349 1
3 317 349 348 0
3 318 319 350 1
3 318 350 349 1
3 319 320 351 1
3 319 351 350 1
3 320 321 352 1
3 320 352 351 1
3 321 322 353 1
3 321 353 352 1
3 322 323 354 1
3 322 354 353 1
3 323 324 355 1
3 323 355 354 1
3 324 325 356 1
3 324 356 355 1
3 325 326 357 1
3 325 357 356 1
3 326 327 358 1
3 326 358 357 1
3 327 328 359 1
3 327 359 358 1
3 328 329 360 1
3 328 360 359 1
3 329 330 361 1
3 329 361 360 1
3 330 331 362 1
3 330 362 361 1
3 331 332 363 1
3 331 363 362 1
3 332 333 364 0
3 332 364 363 1
3 333 334 365 0
3 333 365 364 0
3 334 335 366 0
3 334 366 365 0
3 335 336 367 0
3 335 367 366 0
3 336 337 368 0
3 336 368 367 0
3 337 338 369 0
3 337 369 368 0
3 338 339 370 0
3 338 370 369 0
3 339 340 371 0
3 339 371 370 0
3 341 342 373 0
3 341 373 372 0
3 342 343 374 0
3 342 374 373 0
3 343 344 375 0
3 343 375 374 0
3 344 345 376 0
3 344 376 375 0
3 345 346 377 0
3 345 377 376 0
3 346 347 378 0
3 346 378 377 0
3 347 348 379 0
3 347 379 378 0
3 348 349 380 1
3 348 380 379 0
3 349 350 381 1
3 349 381 380 1
3 350 351 382 1
3 350 382 381 1
3 351 352 383 1
3 351 383 382 1
3 352 353 384 1
3 352 384 383 1
3 353 354 385 1
3 353 385 384 1
3 354 355 386 1
3 354 386 385 1
3 355 356 387 1
3 355 387 386 1
3 356 357 388 1
3 356 388 387 1
3 357 358 389 1
3 357 389 388 1
3 358 359 390 1
3 358 390 389 1
3 359 360 391 1
3 359 391 390 1
3 360 361 392 1
3 360 392 391 1
3 361 362 393 1
3 361 393 392 1
3 362 363 394 1
3 362 394 393 1
3 363 364 395 0
3 363 395 394 1
3 364 365 396 0
3 364 396 395 0
3 365 366 397 0
3 365 397 396 0
3 366 367 398 0
3 366 398 397 0
3 367 368 399 0
3 367 399 398 0
3 368 369 400 0
3 368 400 399 0
3 369 370 401 0
3 369 401 400 0
3 370 371 402 0
3 370 402 401 0
3 372 373 404 0
3 372 404 403 0
3 373 374 405 0
3 373 405 404 0
3 374 375 406 0
3 374 406 405 0
3 375 376 407 0
3 375 407 406 0
3 376 377 408 0
3 376 408 407 0
3 377 378 409 0
3 377 409 408 0
3 378 379 410 0
3 378 410 409 0
3 379 380 411 1
3 379 411 410 0
3 380 381 412 1
3 380 412 411 1
3 381 382 413 1
3 381 413 412 1
3 382 383 414 1
3 382 414 413 1
3 383 384 415 1
3 383 415 414 1
3 384 385 416 1
3 384 416 415 1
3 385 386 417 1
3 385 417 416 1
3 386 387 418 1
3 386 418 417 1
3 387 388 419 1
3 387 419 418 1
3 388 389 420 1
3 388 420 419 1
3 389 390 421 1
3 389 421 420 1
3 390 391 422 1
3 390 422 421 1
3 391 392 423 1
3 391 423 422 1
3 392 393 424 1
3 392 424 423 1
3 393 394 425 1
3 393 425 424 1
3 394 395 426 0
3 394 426 425 1
3 395 396 427 0
3 395 427 426 0
3 396 397 428 0
3 396 428 427 0
3 397 398 429 0
3 397 429 428 0
3 398 399 430 0
3 398 430 429 0
3 399 400 431 0
3 399 431 430 0
3 400 401 432 0
3 400 432 431 0
3 401 402 433 0
3 401 433 432 0
3 403 404 435 0
3 403 435 434 0
3 404 405 436 0
3 404 436 435 0
3 405 406 437 0
3 405 437 436 0
3 406 407 438 0
3 406 438 437 0
3 407 408 439 0
3 407 439 438 0
3 408 409 440 0
3 408 440 439 0
3 409 410 441 0
3 409 441 440 0
3 410 411 442 1
3 410 442 441 0
3 411 412 443 1
3 411 443 442 1
3 412 413 444 1
3 412 444 443 1
3 413 414 445 1
3 413 445 444 1
3 414 415 446 1
3 414 446 445 1
3 415 416 447 1
3 415 447 446 1
3 416 417 448 1
3 416 448 447 1
3 417 418 449 1
3 417 449 448 1
3 418 419 450 1
3 418 450 449 1
3 419 420 451 1
3 419 451 450 1
3 420 421 452 1
3 420 452 451 1
3 421 422 453 1
3 421 453 452 1
3 422 423 454 1
3 422 454 453 1
3 423 424 455 1
3 423 455 454 1
3 424 425 456 1
3 424 456 455 1
3 425 426 457 0
3 425 457 456 1
3 426 427 458 0
3 426 458 457 0
3 427 428 459 0
3 427 459 458 0
3 428 429 460 0
3 428 460 459 0
3 429 430 461 0
3 429 461 460 0
3 430 431 462 0
3 430 462 461 0
3 431 432 463 0
3 431 463 462 0
3 432 433 464 0
3 432 464 463 0
3 434 435 466 0
3 434 466 465 0
3 435 436 467 0
3 435 467 466 0
3 436 437 468 0
3 436 468 467 0
3 437 438 469 0
3 437 469 468 0
3 438 439 470 0
3 438 470 469 0
3 439 440 471 0
3 439 471 470 0
3 440 441 472 0
3 440 472 471 0
3 441 442 473 1
3 441 473 472 0
3 442 443 474 1
3 442 474 473 1
3 443 444 475 1
3 443 475 474 1
3 444 445 476 1
3 444 476 475 1
3 445 446 477 1
3 445 477 476 1
3 446 447 478 1
3 446 478 477 1
3 447 448 479 1
3 447 479 478 1
3 448 449 480 1
3 448 480 479 1
3 449 450 481 1
3 449 481 480 1
3 450 451 482 1
3 450 482 481 1
3 451 452 483 1
3 451 483 482 1
3 452 453 484 1
3 452 484 483 1
3 453 454 485 1
3 453 485 484 1
3 454 455 486 1
3 454 486 485 1
3 455 456 487 1
3 455 487 486 1
3 456 457 488 0
3 456 488 487 1
3 457 458 489 0
3 457 489 488 0
3 458 459 490 0
3 458 490 489 0
3 459 460 491 0
3 459 491 490 0
3 460 461 492 0
3 460 492 491 0
3 461 462 493 0
3 461 493 492 0
3 462 463 494 0
3 462 494 493 0
3 463 464 495 0
3 463 495 494 0
3 465 466 497 0
3 465 497 496 0
3 466 467 498 0
3 466 498 497 0
3 467 468 499 0
3 467 499 498 0
3 468 469 500 0
3 468 500 499 0
3 469 470 501 0
3 469 501 500 0
3 470 471 502 0
3 470 502 501 0
3 471 472 503 0
3 471 503 502 0
3 472 473 504 1
3 472 504 503 0
3 473 474 505 1
3 473 505 504 1
3 474 475 506 1
3 474 506 505 1
3 475 476 507 1
3 475 507 506 1
3 476 477 508 1
3 476 508 507 1
3 477 478 509 1
3 477 509 508 1
3 478 479 510 1
3 478 510 509 1
3 479 480 511 1
3 479 511 510 1
3 480 481 512 1
3 480 512 511 1
3 481 482 513 1
3 481 513 512 1
3 482 483 514 1
3 482 514 513 1
3 483 484 515 1
3 483 515 514 1
3 484 485 516 1
3 484 516 515 1
3 485 486 517 1
3 485 517 516 1
3 486 487 518 1
3 486 518 517 1
3 487 488 519 0
3 487 519 518 1
3 488 489 520 0
3 488 520 519 0
3 489 490 521 0
3 489 521 520 0
3 490 491 522 0
3 490 522 521 0
3 491 492 523 0
3 491 523 522 0
3 492 493 524 0
3 492 524 523 0
3 493 494 525 0
3 493 525 524 0
3 494 495 526 0
3 494 526 525 0
3 496 497 528 0
3 496 528 527 0
3 497 498 529 0
3 497 529 528 0
3 498 499 530 0
3 498 530 529 0
3 499 500 531 0
3 499 531 530 0
3 500 501 532 0
3 500 532 531 0
3 501 502 533 0
3 501 533 532 0
3 502 503 534 0
3 502 534 533 0
3 503 504 535 1
3 503 535 534 0
3 504 505 536 1
3 504 536 535 1
3 505 506 537 1
3 505 537 536 1
3 506 507 538 1
3 506 538 537 1
3 507 508 539 1
3 507 539 538 1
3 508 509 540 1
3 508 540 539 1
3 509 510 541 1
3 509 541 540 1
3 510 511 542 1
3 510 542 541 1
3 511 512 543 1
3 511 543 542 1
3 512 513 544 1
3 512 544 543 1
3 513 514 545 1
3 513 545 544 1
3 514 515 546 1
3 514 546 545 1
3 515 516 547 1
3 515 547 546 1
3 516 517 548 1
3 516 548 547 1
3 517 518 549 1
3 517 549 548 1
3 518 519 550 0
3 518 550 549 1
3 519 520 551 0
3 519 551 550 0
3 520 521 552 0
3 520 552 551 0
3 521 522 553 0
3 521 553 552 0
3 522 523 554 0
3 522 554 553 0
3 523 524 555 0
3 523 555 554 0
3 524 525 556 0
3 524 556 555 0
3 525 526 557 0
3 525 557 556 0
3 527 528 559 0
3 527 559 558 0
3 528 529 560 0
3 528 560 559 0
3 529 530 561 0
3 529 561 560 0
3 530 531 562 0
3 530 562 561 0
3 531 532 563 0
3 531 563 562 0
3 532 533 564 0
3 532 564 563 0
3 533 534 565 0
3 533 565 564 0
3 534 535 566 1
3 534 566 565 0
3 535 536 567 1
3 535 567 566 1
3 536 537 568 1
3 536 568 567 1
3 537 538 569 1
3 537 569 568 1
3 538 539 570 1
3 538 570 569 1
3 539 540 571 1
3 539 571 570 1
3 540 541 572 1
3 540 572 571 1
3 541 542 573 1
3 541 573 572 1
3 542 543 574 1
3 542 574 573 1
3 543 544 575 1
3 543 575 574 1
3 544 545 576 1
3 544 576 575 1
3 545 546 577 1
3 545 577 576 1
3 546 547 578 1
3 546 578 577 1
3 547 548 579 1
3 547 579 578 1
3 548 549 580 1
3 548 580 579 1
3 549 550 581 0
3 549 581 580 1
3 550 551 582 0
3 550 582 581 0
3 551 552 583 0
3 551 583 582 0
3 552 553 584 0
3 552 584 583 0
3 553 554 585 0
3 553 585 584 0
3 554 555 586 0
3 554 586 585 0
3 555 556 587 0
3 555 587 586 0
3 556 557 588 0
3 556 588 587 0
3 558 559 590 0
3 558 590 589 0
3 559 560 591 0
3 559 591 590 0
3 560 561 592 0
3 560 592 591 0
3 561 562 593 0
3 561 593 592 0
3 562 563 594 0
3 562 594 593 0
3 563 564 595 0
3 563 595 594 0
3 564 565 596 0
3 564 596 595 0
3 565 566 597 1
3 565 597 596 0
3 566 567 598 1
3 566 598 597 1
3 567 568 599 1
3 567 599 598 1
3 568 569 600 1
3 568 600 599 1
3 569 570 601 1
3 569 601 600 1
3 570 571 602 1
3 570 602 601 1
3 571 572 603 1
3 571 603 602 1
3 572 573 604 1
3 572 604 603 1
3 573 574 605 1
3 573 605 604 1
3 574 575 606 1
3 574 606 605 1
3 575 576 607 1
3 575 607 606 1
3 576 577 608 1
3 576 608 607 1
3 577 578 609 1
3 577 609 608 1
3 578 579 610 1
3 578 610 609 1
3 579 580 611 1
3 579 611 610 1
3 580 581 612 0
3 580 612 611 1
3 581 582 613 0
3 581 613 612 0
3 582 583 614 0
3 582 614 613 0
3 583 584 615 0
3 583 615 614 0
3 584 585 616 0
3 584 616 615 0
3 585 586 617 0
3 585 617 616 0
3 586 587 618 0
3 586 618 617 0
3 587 588 619 0
3 587 619 618 0
3 589 590 621 0
3 589 621 620 0
3 590 591 622 0
3 590 622 621 0
3 591 592 623 0
3 591 623 622 0
3 592 593 624 0
3 592 624 623 0
3 593 594 625 0
3 593 625 624 0
3 594 595 626 0
3 594 626 625 0
3 595 596 627 0
3 595 627 626 0
3 596 597 628 1
3 596 628 627 0
3 597 598 629 1
3 597 629 628 1
3 598 599 630 1
3 598 630 629 1
3 599 600 631 1
3 599 631 630 1
3 600 601 632 1
3 600 632 631 1
3 601 602 633 1
3 601 633 632 1
3 602 603 634 1
3 602 634 633 1
3 603 604 635 1
3 603 635 634 1
3 604 605 636 1
3 604 636 635 1
3 605 606 637 1
3 605 637 636 1
3 606 607 638 1
3 606 638 637 1
3 607 608 639 1
3 607 639 638 1
3 608 609 640 1
3 608 640 639 1
3 609 610 641 1
3 609 641 640 1
3 610 611 642 1
3 610 642 641 1
3 611 612 643 0
3 611 643 642 1
3 612 613 644 0
3 612 644 643 0
3 613 614 645 0
3 613 645 644 0
3 614 615 646 0
3 614 646 645 0
3 615 616 647 0
3 615 647 646 0
3 616 617 648 0
3 616 648 647 0
3 617 618 649 0
3 617 649 648 0
3 618 619 650 0
3 618 650 649 0
3 620 621 652 0
3 620 652 651 0
3 621 622 653 0
3 621 653 652 0
3 622 623 654 0
3 622 654 653 0
3 623 624 655 0
3 623 655 654 0
3 624 625 656 0
3 624 656 655 0
3 625 626 657 0
3 625 657 656 0
3 626 627 658 0
3 626 658 657 0
3 627 628 659 1
3 627 659 658 0
3 628 629 660 1
3 628 660 659 1
3 629 630 661 1
3 629 661 660 1
3 630 631 662 1
3 630 662 661 1
3 631 632 663 1
3 631 663 662 1
3 632 633 664 1
3 632 664 663 1
3 633 634 665 1
3 633 665 664 1
3 634 635 666 1
3 634 666 665 1
3 635 636 667 1
3 635 667 666 1
3 636 637 668 1
3 636 668 667 1
3 637 638 669 1
3 637 669 668 1
3 638 639 670 1
3 638 670 669 1
3 639 640 671 1
3 639 671 670 1
3 640 641 672 1
3 640 672 671 1
3 641 642 673 1
3 641 673 672 1
3 642 643 674 0
3 642 674 673 1
3 643 644 675 0
3 643 675 674 0
3 644 645 676 0
3 644 676 675 0
3 645 646 677 0
3 645 677 676 0
3 646 647 678 0
3 646 678 677 0
3 647 648 679 0
3 647 679 678 0
3 648 649 680 0
3 648 680 679 0
3 649 650 681 0
3 649 681 680 0
3 651 652 683 0
3 651 683 682 0
3 652 653 684 0
3 652 684 683 0
3 653 654 685 0
3 653 685 684 0
3 654 655 686 0
3 654 686 685 0
3 655 656 687 0
3 655 687 686 0
3 656 657 688 0
3 656 688 687 0
3 657 658 689 0
3 657 689 688 0
3 658 659 690 1
3 658 690 689 0
3 659 660 691 1
3 659 691 690 1
3 660 661 692 1
3 660 692 691 1
3 661 662 693 1
3 661 693 692 1
3 662 663 694 1
3 662 694 693 1
3 663 664 695 1
3 663 695 694 1
3 664 665 696 1
3 664 696 695 1
3 665 666 697 1
3 665 697 696 1
3 666 667 698 1
3 666 698 697 1
3 667 668 699 1
3 667 699 698 1
3 668 669 700 1
3 668 700 699 1
3 669 670 701 1
3 669 701 700 1
3 670 671 702 1
3 670 702 701 1
3 671 672 703 1
3 671 703 702 1
3 672 673 704 1
3 672 704 703 1
3 673 674 705 0
3 673 705 704 1
3 674 675 706 0
3 674 706 705 0
3 675 676 707 0
3 675 707 706 0
3 676 677 708 0
3 676 708 707 0
3 677 678 709 0
3 677 709 708 0
3 678 679 710 0
3 678 710 709 0
3 679 680 711 0
3 679 711 710 0
3 680 681 712 0
3 680 712 711 0
3 682 683 714 0
3 682 714 713 0
3 683 684 715 0
3 683 715 714 0
3 684 685 716 0
3 684 716 715 0
3 685 686 717 0
3 685 717 716 0
3 686 687 718 0
3 686 718 717 0
3 687 688 719 0
3 687 719 718 0
3 688 689 720 0
3 688 720 719 0
3 689 690 721 1
3 689 721 720 0
3 690 691 722 1
3 690 722 721 0
3 691 692 723 1
3 691 723 722 0
3 692 693 724 1
3 692 724 723 0
3 693 694 725 1
3 693 725 724 0
3 694 695 726 1
3 694 726 725 0
3 695 696 727 1
3 695 727 726 0
3 696 697 728 1
3 696 728 727 0
3 697 698 729 1
3 697 729 728 0
3 698 699 730 1
3 698 730 729 0
3 699 700 731 1
3 699 731 730 0
3 700 701 732 1
3 700 732 731 0
3 701 702 733 1
3 701 733 732 0
3 702 703 734 1
3 702 734 733 0
3 703 704 735 1
3 703 735 734 0
3 704 705 736 0
3 704 736 735 0
3 705 706 737 0
3 705 737 736 0
3 706 707 738 0
3 706 738 737 0
3 707 708 739 0
3 707 739 738 0
3 708 709 740 0
3 708 740 739 0
3 709 710 741 0
3 709 741 740 0
3 710 711 742 0
3 710 742 741 0
3 711 712 743 0
3 711 743 742 0
3 713 714 745 0
3 713 745 744 0
3 714 715 746 0
3 714 746 745 0
3 715 716 747 0
3 715 747 746 0
3 716 717 748 0
3 716 748 747 0
3 717 718 749 0
3 717 749 748 0
3 718 719 750 0
3 718 750 749 0
3 719 720 751 0
3 719 751 750 0
3 720 721 752 0
3 720 752 751 0
3 721 722 753 0
3 721 753 752 0
3 722 723 754 0
3 722 754 753 0
3 723 724 755 0
3 723 755 754 0
3 724 725 756 0
3 724 756 755 0
3 725 726 757 0
3 725 757 756 0
3 726 727 758 0
3 726 758 757 0
3 727 728 759 0
3 727 759 758 0
3 728 729 760 0
3 728 760 759 0
3 729 730 761 0
3 729 761 760 0
3 730 731 762 0
3 730 762 761 0
3 731 732 763 0
3 731 763 762 0
3 732 733 764 0
3 732 764 763 0
3 733 734 765 0
3 733 765 764 0
3 734 735 766 0
3 734 766 765 0
3 735 736 767 0
3 735 767 766 0
3 736 737 768 0
3 736 768 767 0
3 737 738 769 0
3 737 769 768 0
3 738 739 770 0
3 738 770 769 0
3 739 740 771 0
3 739 771 770 0
3 740 741 772 0
3 740 772 771 0
3 741 742 773 0
3 741 773 772 0
3 742 743 774 0
3 742 774 773 0
3 744 745 776 0
3 744 776 775 0
3 745 746 777 0
3 745 777 776 0
3 746 747 778 0
3 746 778 777 0
3 747 748 779 0
3 747 779 778 0
3 748 749 780 0
3 748 780 779 0
3 749 750 781 0
3 749 781 780 0
3 750 751 782 0
3 750 782 781 0
3 751 752 783 0
3 751 783 782 0
3 752 753 784 0
3 752 784 783 0
3 753 754 785 0
3 753 785 784 0
3 754 755 786 0
3 754 786 785 0
3 755 756 787 0
3 755 787 786 0
3 756 757 788 0
3 756 788 787 0
3 757 758 789 0
3 757 789 788 0
3 758 759 790 0
3 758 790 789 0
3 759 760 791 0
3 759 791 790 0
3 760 761 792 0
3 760 792 791 0
3 761 762 793 0
3 761 793 792 0
3 762 763 794 0
3 762 794 793 0
3 763 764 795 0
3 763 795 794 0
3 764 765 796 0
3 764 796 795 0
3 765 766 797 0
3 765 797 796 0
3 766 767 798 0
3 766 798 797 0
3 767 768 799 0
3 767 799 798 0
3 768 769 800 0
3 768 800 799 0
3 769 770 801 0
3 769 801 800 0
3 770 771 802 0
3 770 802 801 0
3 771 772 803 0
3 771 803 802 0
3 772 773 804 0
3 772 804 803 0
3 773 774 805 0
3 773 805 804 0
3 775 776 807 0
3 775 807 806 0
3 776 777 808 0
3 776 808 807 0
3 777 778 809 0
3 777 809 808 0
3 778 779 810 0
3 778 810 809 0
3 779 780 811 0
3 779 811 810 0
3 780 781 812 0
3 780 812 811 0
3 781 782 813 0
3 781 813 812 0
3 782 783 814 0
3 782 814 813 0
3 783 784 815 0
3 783 815 814 0
3 784 785 816 0
3 784 816 815 0
3 785 786 817 0
3 785 817 816 0
3 786 787 818 0
3 786 818 817 0
3 787 788 819 0
3 787 819 818 0
3 788 789 820 0
3 788 820 819 0
3 789 790 821 0
3 789 821 820 0
3 790 791 822 0
3 790 822 821 0
3 791 792 823 0
3 791 823 822 0
3 792 793 824 0
3 792 824 823 0
3 793 794 825 0
3 793 825 824 0
3 794 795 826 0
3 794 826 825 0
3 795 796 827 0
3 795 827 826 0
3 796 797 828 0
3 796 828 827 0
3 797 798 829 0
3 797 829 828 0
3 798 799 830 0
3 798 830 829 0
3 799 800 831 0
3 799 831 830 0
3 800 801 832 0
3 800 832 831 0
3 801 802 833 0
3 801 833 832 0
3 802 803 834 0
3 802 834 833 0
3 803 804 835 0
3 803 835 834 0
3 804 805 836 0
3 804 836 835 0
3 806 807 838 0
3 806 838 837 0
3 807 808 839 0
3 807 839 838 0
3 808 809 840 0
3 808 840 839 0
3 809 810 841 0
3 809 841 840 0
3 810 811 842 0
3 810 842 841 0
3 811 812 843 0
3 811 843 842 0
3 812 813 844 0
3 812 844 843 0
3 813 814 845 0
3 813 845 844 0
3 814 815 846 0
3 814 846 845 0
3 815 816 847 0
3 815 847 846 0
3 816 817 848 0
3 816 848 847 0
3 817 818 849 0
3 817 849 848 0
3 818 819 850 0
3 818 850 849 0
3 819 820 851 0
3 819 851 850 0
3 820 821 852 0
3 820 852 851 0
3 821 822 853 0
3 821 853 852 0
3 822 823 854 0
3 822 854 853 0
3 823 824 855 0
3 823 855 854 0
3 824 825 856 0
3 824 856 855 0
3 825 826 857 0
3 825 857 856 0
3 826 827 858 0
3 826 858 857 0
3 827 828 859 0
3 827 859 858 0
3 828 829 860 0
3 828 860 859 0
3 829 830 861 0
3 829 861 860 0
3 830 831 862 0
3 830 862 861 0
3 831 832 863 0
3 831 863 862 0
3 832 833 864 0
3 832 864 863 0
3 833 834 865 0
3 833 865 864 0
3 834 835 866 0
3 834 866 865 0
3 835 836 867 0
3 835 867 866 0
3 837 838 869 0
3 837 869 868 0
3 838 839 870 0
3 838 870 869 0
3 839 840 871 0
3 839 871 870 0
3 840 841 872 0
3 840 872 871 0
3 841 842 873 0
3 841 873 872 0
3 842 843 874 0
3 842 874 873 0
3 843 844 875 0
3 843 875 874 0
3 844 845 876 0
3 844 876 875 0
3 845 846 877 0
3 845 877 876 0
3 846 847 878 0
3 846 878 877 0
3 847 848 879 0
3 847 879 878 0
3 848 849 880 0
3 848 880 879 0
3 849 850 881 0
3 849 881 880 0
3 850 851 882 0
3 850 882 881 0
3 851 852 883 0
3 851 883 882 0
3 852 853 884 0
3 852 884 883 0
3 853 854 885 0
3 853 885 884 0
3 854 855 886 0
3 854 886 885 0
3 855 856 887 0
3 855 887 886 0
3 856 857 888 0
3 856 888 887 0
3 857 858 889 0
3 857 889 888 0
3 858 859 890 0
3 858 890 889 0
3 859 860 891 0
3 859 891 890 0
3 860 861 892 0
3 860 892 891 0
3 861 862 893 0
3 861 893 892 0
3 862 863 894 0
3 862 894 893 0
3 863 864 895 0
3 863 895 894 0
3 864 865 896 0
3 864 896 895 0
3 865 866 897 0
3 865 897 896 0
3 866 867 898 0
3 866 898 897 0
3 868 869 900 0
3 868 900 899 0
3 869 870 901 0
3 869 901 900 0
3 870 871 902 0
3 870 902 901 0
3 871 872 903 0
3 871 903 902 0
3 872 873 904 0
3 872 904 903 0
3 873 874 905 0
3 873 905 904 0
3 874 875 906 0
3 874 906 905 0
3 875 876 907 0
3 875 907 906 0
3 876 877 908 0
3 876 908 907 0
3 877 878 909 0
3 877 909 908 0
3 878 879 910 0
3 878 910 909 0
3 879 880 911 0
3 879 911 910 0
3 880 881 912 0
3 880 912 911 0
3 881 882 913 0
3 881 913 912 0
3 882 883 914 0
3 882 914 913 0
3 883 884 915 0
3 883 915 914 0
3 884 885 916 0
3 884 916 915 0
3 885 886 917 0
3 885 917 916 0
3 886 887 918 0
3 886 918 917 0
3 887 888 919 0
3 887 919 918 0
3 888 889 920 0
3 888 920 919 0
3 889 890 921 0
3 889 921 920 0
3 890 891 922 0
3 890 922 921 0
3 891 892 923 0
3 891 923 922 0
3 892 893 924 0
3 892 924 923 0
3 893 894 925 0
3 893 925 924 0
3 894 895 926 0
3 894 926 925 0
3 895 896 927 0
3 895 927 926 0
3 896 897 928 0
3 896 928 927 0
3 897 898 929 0
3 897 929 928 0
3 899 900 931 0
3 899 931 930 0
3 900 901 932 0
3 900 932 931 0
3 901 902 933 0
3 901 933 932 0
3 902 903 934 0
3 902 934 933 0
3 903 904 935 0
3 903 935 934 0
3 904 905 936 0
3 904 936 935 0
3 905 906 937 0
3 905 937 936 0
3 906 907 938 0
3 906 938 937 0
3 907 908 939 0
3 907 939 938 0
3 908 909 940 0
3 908 940 939 0
3 909 910 941 0
3 909 941 940 0
3 910 911 942 0
3 910 942 941 0
3 911 912 943 0
3 911 943 942 0
3 912 913 944 0
3 912 944 943 0
3 913 914 945 0
3 913 945 944 0
3 914 915 946 0
3 914 946 945 0
3 915 916 947 0
3 915 947 946 0
3 916 917 948 0
3 916 948 947 0
3 917 918 949 0
3 917 949 948 0
3 918 919 950 0
3 918 950 949 0
3 919 920 951 0
3 919 951 950 0
3 920 921 952 0
3 920 952 951 0
3 921 922 953 0
3 921 953 952 0
3 922 923 954 0
3 922 954 953 0
3 923 924 955 0
3 923 955 954 0
3 924 925 956 0
3 924 956 955 0
3 925 926 957 0
3 925 957 956 0
3 926 927 958 0
3 926 958 957 0
3 927 928 959 0
3 927 959 958 0
3 928 929 960 0
3 928 960 959 0
1.2215e6
3.48e6
3.63e6
5.6e6
5.701e6
5.771e6
5.971e6
6.151e6
6.291e6
6.3466e6
6.356e6
6.368e6
6.371e6
